<svg width="305" height="328" viewBox="0 0 305 328" fill="none" xmlns="http://www.w3.org/2000/svg">
<ellipse cx="152.319" cy="313.93" rx="152.074" ry="13.4512" fill="#A3A3A3" fill-opacity="0.33"/>
<path d="M52.0856 108.33C41.7196 99.1037 28.3298 94.1154 14.6745 94.1039C4.97585 110.935 4.26853 132.336 14.6801 150.369C15.1673 151.213 15.673 152.039 16.1965 152.848C24.3097 135.181 36.7187 119.896 52.0856 108.33Z" fill="#F9CFCF"/>
<path d="M62.7137 101.209C45.7855 91.324 18.8209 89.3322 15.8674 92.2858C12.7647 95.3887 5.92562 117.034 23.5902 139.229C33.4317 123.673 46.8605 110.612 62.7137 101.209Z" fill="#CE9494"/>
<path fill-rule="evenodd" clip-rule="evenodd" d="M227.344 151.931C227.856 151.14 228.35 150.331 228.826 149.506C239.237 131.473 238.53 110.072 228.831 93.241C215.037 93.2524 201.514 98.3429 191.104 107.751C206.562 119.185 219.087 134.357 227.344 151.931Z" fill="#F9CFCF"/>
<path fill-rule="evenodd" clip-rule="evenodd" d="M181.842 101.561C197.716 111.104 211.127 124.327 220.892 140.051C239.392 117.571 232.421 95.427 229.28 92.2857C226.292 89.2976 198.725 91.3714 181.842 101.561Z" fill="#CE9494"/>
<path d="M25.0828 265.769L40.9103 309.798C44.9654 321.079 60.9185 321.079 64.9735 309.798L67.0755 303.951C50.1286 294.863 35.6938 281.699 25.0828 265.769Z" fill="#CE9494"/>
<path d="M176.891 303.951L178.993 309.798C183.048 321.079 199.001 321.079 203.056 309.798L218.884 265.769C208.273 281.699 193.838 294.863 176.891 303.951Z" fill="#CE9494"/>
<path d="M23.5355 261.441L39.3631 305.47C43.4182 316.75 59.3712 316.75 63.4263 305.47L65.5283 299.623C48.5813 290.535 34.1465 277.37 23.5355 261.441Z" fill="#DEA5A5"/>
<path d="M175.344 299.623L177.446 305.47C181.501 316.75 197.454 316.75 201.509 305.47L217.336 261.441C206.725 277.37 192.291 290.535 175.344 299.623Z" fill="#DEA5A5"/>
<path d="M5.63599 194.957C8.9547 133.673 59.699 85.002 121.811 85.002C183.922 85.002 234.667 133.673 237.985 194.957C234.667 256.24 183.922 304.911 121.811 304.911C59.699 304.911 8.9547 256.24 5.63599 194.957Z" fill="#F9B5B5"/>
<path fill-rule="evenodd" clip-rule="evenodd" d="M121.983 317.697C186.24 317.697 238.331 265.606 238.331 201.349C238.331 137.092 186.24 85.002 121.983 85.002C121.954 85.002 121.926 85.002 121.897 85.002C183.969 85.0472 234.668 133.701 237.985 194.957C234.667 256.24 183.922 304.911 121.811 304.911C60.2384 304.911 9.83691 257.082 5.73315 196.55C5.66858 198.142 5.63599 199.742 5.63599 201.349C5.63599 265.606 57.7264 317.697 121.983 317.697Z" fill="#F9A8A8"/>
<path fill-rule="evenodd" clip-rule="evenodd" d="M128.855 85.3463V110.217C128.855 111.874 127.512 113.217 125.855 113.217H120.668C119.011 113.217 117.668 111.874 117.668 110.217V85.2098C119.284 85.0721 120.916 85.002 122.563 85.002C124.686 85.002 126.785 85.1185 128.855 85.3463Z" fill="#CE9494"/>
<path fill-rule="evenodd" clip-rule="evenodd" d="M125.819 85.3141V107.573C125.819 109.23 124.476 110.573 122.819 110.573H121.148C119.491 110.573 118.148 109.23 118.148 107.573V85.1903C119.255 85.0654 120.375 85.002 121.504 85.002C122.96 85.002 124.399 85.1077 125.819 85.3141Z" fill="#CE9494"/>
<circle cx="97.691" cy="151.241" r="10.2283" fill="#B97F7F"/>
<circle cx="148.833" cy="151.241" r="10.2283" fill="#B97F7F"/>
<circle cx="123.262" cy="205.185" r="35.7992" fill="#F9CFCF"/>
<circle cx="123.262" cy="205.185" r="35.2992" stroke="#CE9494" stroke-opacity="0.61"/>
<ellipse cx="113.764" cy="192.4" rx="5.84474" ry="7.67125" fill="#F2B7B7"/>
<ellipse cx="113.764" cy="192.4" rx="5.84474" ry="7.67125" fill="#F2B7B7"/>
<ellipse cx="113.764" cy="192.4" rx="5.84474" ry="7.67125" fill="#F2B7B7"/>
<ellipse cx="132.76" cy="192.4" rx="5.84474" ry="7.67125" fill="#F2B7B7"/>
<ellipse cx="132.76" cy="192.4" rx="5.84474" ry="7.67125" fill="#F2B7B7"/>
<ellipse cx="132.76" cy="192.4" rx="5.84474" ry="7.67125" fill="#F2B7B7"/>
<path d="M161.618 38.9745C161.618 60.1581 144.445 77.3307 123.262 77.3307C102.078 77.3307 84.9055 60.1581 84.9055 38.9745C84.9055 17.7909 102.078 0.618225 123.262 0.618225C144.445 0.618225 161.618 17.7909 161.618 38.9745Z" fill="#F49117" fill-opacity="0.78"/>
<path fill-rule="evenodd" clip-rule="evenodd" d="M123.262 70.3569C140.594 70.3569 154.644 56.3065 154.644 38.9745C154.644 21.6425 140.594 7.59209 123.262 7.59209C105.93 7.59209 91.8794 21.6425 91.8794 38.9745C91.8794 56.3065 105.93 70.3569 123.262 70.3569ZM123.262 77.3307C144.445 77.3307 161.618 60.1581 161.618 38.9745C161.618 17.7909 144.445 0.618225 123.262 0.618225C102.078 0.618225 84.9055 17.7909 84.9055 38.9745C84.9055 60.1581 102.078 77.3307 123.262 77.3307Z" fill="#FFD73D"/>
<path d="M152.319 39.5556C152.319 55.9247 139.05 69.1945 122.681 69.1945C106.311 69.1945 93.0416 55.9247 93.0416 39.5556C93.0416 23.1865 106.311 9.91669 122.681 9.91669C139.05 9.91669 152.319 23.1865 152.319 39.5556Z" fill="#FFD017" fill-opacity="0.24"/>
<path fill-rule="evenodd" clip-rule="evenodd" d="M122.681 66.8699C137.766 66.8699 149.995 54.6409 149.995 39.5556C149.995 24.4703 137.766 12.2413 122.681 12.2413C107.595 12.2413 95.3662 24.4703 95.3662 39.5556C95.3662 54.6409 107.595 66.8699 122.681 66.8699ZM122.681 69.1945C139.05 69.1945 152.319 55.9247 152.319 39.5556C152.319 23.1865 139.05 9.91669 122.681 9.91669C106.311 9.91669 93.0416 23.1865 93.0416 39.5556C93.0416 55.9247 106.311 69.1945 122.681 69.1945Z" fill="#CCA200"/>
<path d="M119.764 49.7416C119.525 49.4124 119.344 49.0435 119.219 48.6349C119.105 48.2263 119.02 47.8404 118.963 47.4771C118.907 47.1026 118.873 46.7791 118.861 46.5066C118.861 46.2342 118.861 46.0696 118.861 46.0129C118.861 45.6497 118.844 45.2183 118.81 44.7189C118.787 44.2081 118.725 43.686 118.623 43.1525C118.521 42.6077 118.373 42.0742 118.18 41.5521C117.999 41.0186 117.743 40.5419 117.414 40.1219C117.096 39.7019 116.699 39.3671 116.222 39.1173C115.757 38.8563 115.195 38.7257 114.537 38.7257C114.446 38.7257 114.349 38.7314 114.247 38.7428C114.156 38.7541 114.066 38.7598 113.975 38.7598V49.367L109.276 49.4692C109.344 49.0719 109.4 48.6065 109.446 48.073C109.503 47.5282 109.548 46.955 109.582 46.3534C109.616 45.7405 109.644 45.1048 109.667 44.4465C109.69 43.7882 109.707 43.1412 109.718 42.5055C109.73 41.8699 109.735 41.257 109.735 40.6667C109.747 40.0651 109.752 39.526 109.752 39.0492C109.752 38.686 109.747 38.1525 109.735 37.4488C109.735 36.745 109.724 35.9562 109.701 35.0822C109.69 34.1968 109.673 33.2717 109.65 32.3069C109.639 31.3308 109.622 30.4 109.599 29.5147C109.576 28.618 109.548 27.8064 109.514 27.0799C109.491 26.3421 109.468 25.7746 109.446 25.3773C110.07 25.2525 110.74 25.1617 111.455 25.1049C112.17 25.0368 112.834 24.9857 113.447 24.9517C114.162 24.9063 114.871 24.8836 115.575 24.8836C116.71 24.8382 117.777 24.9347 118.776 25.173C119.775 25.4 120.649 25.7916 121.398 26.3478C122.159 26.8926 122.76 27.6021 123.203 28.4761C123.657 29.3387 123.895 30.3716 123.918 31.5748C123.736 32.4261 123.447 33.215 123.05 33.9414C122.879 34.2479 122.675 34.5657 122.437 34.8949C122.21 35.2127 121.937 35.5135 121.619 35.7973C121.313 36.081 120.961 36.3421 120.564 36.5805C120.167 36.8075 119.724 36.9891 119.236 37.1253C119.962 37.4091 120.552 37.7439 121.006 38.1298C121.46 38.5044 121.818 38.9301 122.079 39.4068C122.34 39.8722 122.527 40.3773 122.641 40.9221C122.766 41.4556 122.851 42.0231 122.896 42.6247C122.953 43.2149 122.998 43.8279 123.033 44.4635C123.067 45.0878 123.129 45.7234 123.22 46.3704C123.311 46.8585 123.424 47.3239 123.56 47.7666C123.685 48.1525 123.838 48.5441 124.02 48.9414C124.213 49.3273 124.446 49.6451 124.718 49.8948L119.764 49.7416ZM119.593 31.7961C119.582 31.0697 119.423 30.417 119.117 29.8382C118.98 29.5998 118.804 29.3614 118.589 29.1231C118.384 28.8847 118.123 28.6747 117.806 28.4931C117.499 28.3115 117.125 28.1639 116.682 28.0504C116.251 27.9369 115.745 27.8802 115.167 27.8802C114.724 27.8802 114.236 27.9426 113.702 28.0674L113.77 35.7632C113.975 35.7973 114.179 35.8256 114.383 35.8483C114.588 35.8597 114.775 35.8654 114.945 35.8654C115.49 35.8654 115.972 35.8086 116.392 35.6951C116.812 35.5816 117.181 35.4284 117.499 35.2354C117.817 35.0424 118.089 34.8268 118.316 34.5884C118.543 34.3501 118.736 34.1003 118.895 33.8393C119.258 33.2377 119.491 32.5566 119.593 31.7961Z" fill="#FFD73D"/>
<path d="M125.399 56.2626C125.535 54.6281 125.649 53.0219 125.74 51.4442C125.842 49.8664 125.927 48.3057 125.995 46.762C126.063 45.207 126.114 43.6576 126.148 42.1139C126.182 40.5702 126.199 39.0095 126.199 37.4318C126.199 35.3319 126.165 33.1639 126.097 30.9278L129.962 30.8767L129.86 32.7666C130.348 31.8132 130.916 31.0697 131.563 30.5362C132.21 30.0027 132.885 29.736 133.589 29.736C134.44 29.736 135.195 29.9233 135.853 30.2979C136.523 30.6611 137.085 31.24 137.539 32.0345C137.993 32.8291 138.339 33.8449 138.577 35.0822C138.816 36.308 138.935 37.7893 138.935 39.526C138.935 41.5123 138.77 43.1866 138.441 44.5487C138.112 45.8994 137.675 46.9947 137.13 47.8347C136.585 48.6633 135.967 49.2592 135.274 49.6224C134.593 49.9856 133.895 50.1672 133.18 50.1672C132.805 50.1332 132.42 50.0424 132.022 49.8948C131.682 49.77 131.302 49.5713 130.882 49.2989C130.473 49.0151 130.064 48.6179 129.656 48.1071C129.678 49.4578 129.712 50.8142 129.758 52.1763C129.803 53.5384 129.871 54.9289 129.962 56.3477L125.399 56.2626ZM129.622 44.6849C129.735 44.9005 129.871 45.1332 130.03 45.3829C130.189 45.6213 130.359 45.8483 130.541 46.064C130.734 46.2683 130.938 46.4385 131.154 46.5747C131.37 46.711 131.602 46.7791 131.852 46.7791C132.193 46.7791 132.527 46.6429 132.857 46.3704C133.197 46.0867 133.498 45.6497 133.759 45.0594C134.02 44.4578 134.23 43.686 134.389 42.7439C134.559 41.7904 134.644 40.6497 134.644 39.3217C134.644 38.232 134.588 37.2956 134.474 36.5124C134.372 35.7178 134.23 35.0651 134.048 34.5544C133.867 34.0322 133.651 33.652 133.401 33.4136C133.152 33.1639 132.891 33.039 132.618 33.039C132.391 33.039 132.17 33.1242 131.954 33.2944C131.739 33.4534 131.529 33.6633 131.324 33.9244C131.131 34.1741 130.95 34.4636 130.779 34.7927C130.609 35.1105 130.45 35.4284 130.303 35.7462C130.166 36.0527 130.047 36.3421 129.945 36.6145C129.843 36.8869 129.769 37.1026 129.724 37.2615C129.69 38.476 129.661 39.6679 129.639 40.837C129.627 42.0061 129.622 43.1866 129.622 44.3784V44.6849Z" fill="#FFD73D"/>
<path d="M147.206 12.8907L91.0537 53.099C90.9825 52.933 90.9126 52.7663 90.8439 52.599L146.8 12.5311C146.936 12.6499 147.071 12.7698 147.206 12.8907ZM157.017 27.6985C157.375 28.7426 157.686 29.8088 157.947 30.8946L104.65 69.0588C103.711 68.4633 102.803 67.8248 101.927 67.146L157.017 27.6985Z" stroke="white" stroke-opacity="0.2" stroke-width="6"/>
<rect x="227.441" y="304.962" width="71.0994" height="13.2968" rx="2" fill="#FFCA00"/>
<rect x="236.796" y="306.861" width="14.9683" height="9.49774" rx="1" fill="#FFF386"/>
<path fill-rule="evenodd" clip-rule="evenodd" d="M298.538 306.861C298.54 306.894 298.54 306.927 298.54 306.961V316.258C298.54 316.292 298.54 316.325 298.538 316.359H278.959C278.407 316.359 277.959 315.911 277.959 315.359V307.861C277.959 307.309 278.407 306.861 278.959 306.861H298.538Z" fill="#927400"/>
<path d="M232.119 306.861C231.602 306.861 231.183 307.28 231.183 307.796V315.423C231.183 315.94 231.602 316.359 232.119 316.359C232.635 316.359 233.054 315.94 233.054 315.423V307.796C233.054 307.28 232.635 306.861 232.119 306.861Z" fill="#FFD73D"/>
<path d="M235.861 306.861C235.344 306.861 234.925 307.28 234.925 307.796V315.423C234.925 315.94 235.344 316.359 235.861 316.359C236.377 316.359 236.796 315.94 236.796 315.423V307.796C236.796 307.28 236.377 306.861 235.861 306.861Z" fill="#FFD73D"/>
<path d="M238.667 307.796C238.667 307.28 239.086 306.861 239.603 306.861C240.119 306.861 240.538 307.28 240.538 307.796V315.423C240.538 315.94 240.119 316.359 239.603 316.359C239.086 316.359 238.667 315.94 238.667 315.423V307.796Z" fill="#FFD73D"/>
<path d="M243.345 306.861C242.828 306.861 242.409 307.28 242.409 307.796V315.423C242.409 315.94 242.828 316.359 243.345 316.359C243.861 316.359 244.28 315.94 244.28 315.423V307.796C244.28 307.28 243.861 306.861 243.345 306.861Z" fill="#FFD73D"/>
<path d="M246.152 307.796C246.152 307.28 246.57 306.861 247.087 306.861C247.604 306.861 248.023 307.28 248.023 307.796V315.423C248.023 315.94 247.604 316.359 247.087 316.359C246.57 316.359 246.152 315.94 246.152 315.423V307.796Z" fill="#FFD73D"/>
<path d="M250.829 306.861C250.312 306.861 249.894 307.28 249.894 307.796V315.423C249.894 315.94 250.312 316.359 250.829 316.359C251.346 316.359 251.765 315.94 251.765 315.423V307.796C251.765 307.28 251.346 306.861 250.829 306.861Z" fill="#FFD73D"/>
<path d="M253.636 307.796C253.636 307.28 254.054 306.861 254.571 306.861C255.088 306.861 255.507 307.28 255.507 307.796V315.423C255.507 315.94 255.088 316.359 254.571 316.359C254.054 316.359 253.636 315.94 253.636 315.423V307.796Z" fill="#FFD73D"/>
<path d="M258.313 306.861C257.797 306.861 257.378 307.28 257.378 307.796V315.423C257.378 315.94 257.797 316.359 258.313 316.359C258.83 316.359 259.249 315.94 259.249 315.423V307.796C259.249 307.28 258.83 306.861 258.313 306.861Z" fill="#FFD73D"/>
<path d="M261.12 307.796C261.12 307.28 261.539 306.861 262.055 306.861C262.572 306.861 262.991 307.28 262.991 307.796V315.423C262.991 315.94 262.572 316.359 262.055 316.359C261.539 316.359 261.12 315.94 261.12 315.423V307.796Z" fill="#FFD73D"/>
<path d="M265.797 306.861C265.281 306.861 264.862 307.28 264.862 307.796V315.423C264.862 315.94 265.281 316.359 265.797 316.359C266.314 316.359 266.733 315.94 266.733 315.423V307.796C266.733 307.28 266.314 306.861 265.797 306.861Z" fill="#FFD73D"/>
<path d="M268.604 307.796C268.604 307.28 269.023 306.861 269.54 306.861C270.056 306.861 270.475 307.28 270.475 307.796V315.423C270.475 315.94 270.056 316.359 269.54 316.359C269.023 316.359 268.604 315.94 268.604 315.423V307.796Z" fill="#FFD73D"/>
<path d="M273.282 306.861C272.765 306.861 272.346 307.28 272.346 307.796V315.423C272.346 315.94 272.765 316.359 273.282 316.359C273.798 316.359 274.217 315.94 274.217 315.423V307.796C274.217 307.28 273.798 306.861 273.282 306.861Z" fill="#FFD73D"/>
<path d="M276.088 307.796C276.088 307.28 276.507 306.861 277.024 306.861C277.54 306.861 277.959 307.28 277.959 307.796V315.423C277.959 315.94 277.54 316.359 277.024 316.359C276.507 316.359 276.088 315.94 276.088 315.423V307.796Z" fill="#FFD73D"/>
<path d="M280.766 306.861C280.249 306.861 279.83 307.28 279.83 307.796V315.423C279.83 315.94 280.249 316.359 280.766 316.359C281.282 316.359 281.701 315.94 281.701 315.423V307.796C281.701 307.28 281.282 306.861 280.766 306.861Z" fill="#FFD73D"/>
<path d="M283.572 307.796C283.572 307.28 283.991 306.861 284.508 306.861C285.024 306.861 285.443 307.28 285.443 307.796V315.423C285.443 315.94 285.024 316.359 284.508 316.359C283.991 316.359 283.572 315.94 283.572 315.423V307.796Z" fill="#FFD73D"/>
<path d="M288.25 306.861C287.733 306.861 287.314 307.28 287.314 307.796V315.423C287.314 315.94 287.733 316.359 288.25 316.359C288.766 316.359 289.185 315.94 289.185 315.423V307.796C289.185 307.28 288.766 306.861 288.25 306.861Z" fill="#FFD73D"/>
<path d="M291.056 307.796C291.056 307.28 291.475 306.861 291.992 306.861C292.508 306.861 292.927 307.28 292.927 307.796V315.423C292.927 315.94 292.508 316.359 291.992 316.359C291.475 316.359 291.056 315.94 291.056 315.423V307.796Z" fill="#FFD73D"/>
<path d="M295.734 306.861C295.218 306.861 294.799 307.28 294.799 307.796V315.423C294.799 315.94 295.218 316.359 295.734 316.359C296.251 316.359 296.67 315.94 296.67 315.423V307.796C296.67 307.28 296.251 306.861 295.734 306.861Z" fill="#FFD73D"/>
<path fill-rule="evenodd" clip-rule="evenodd" d="M227.443 316.359C227.496 317.417 228.37 318.259 229.441 318.259H296.54C297.611 318.259 298.486 317.417 298.538 316.359H227.443Z" fill="#CCA200"/>
<rect x="229.312" y="291.665" width="71.0994" height="13.2968" rx="2" fill="#FFCA00"/>
<rect x="238.667" y="293.564" width="14.9683" height="9.49774" rx="1" fill="#FFF386"/>
<path fill-rule="evenodd" clip-rule="evenodd" d="M300.409 293.564C300.411 293.598 300.411 293.631 300.411 293.665V302.962C300.411 302.995 300.411 303.029 300.409 303.062H280.83C280.278 303.062 279.83 302.614 279.83 302.062V294.564C279.83 294.012 280.278 293.564 280.83 293.564H300.409Z" fill="#927400"/>
<path d="M229.312 294.5C229.312 293.983 229.731 293.564 230.248 293.564C230.764 293.564 231.183 293.983 231.183 294.5V302.126C231.183 302.643 230.764 303.062 230.248 303.062C229.731 303.062 229.312 302.643 229.312 302.126V294.5Z" fill="#FFD73D"/>
<path d="M233.054 294.5C233.054 293.983 233.473 293.564 233.99 293.564C234.507 293.564 234.925 293.983 234.925 294.5V302.126C234.925 302.643 234.507 303.062 233.99 303.062C233.473 303.062 233.054 302.643 233.054 302.126V294.5Z" fill="#FFD73D"/>
<path d="M236.796 294.5C236.796 293.983 237.215 293.564 237.732 293.564C238.249 293.564 238.667 293.983 238.667 294.5V302.126C238.667 302.643 238.249 303.062 237.732 303.062C237.215 303.062 236.796 302.643 236.796 302.126V294.5Z" fill="#FFD73D"/>
<path d="M241.474 293.564C240.957 293.564 240.538 293.983 240.538 294.5V302.126C240.538 302.643 240.957 303.062 241.474 303.062C241.99 303.062 242.409 302.643 242.409 302.126V294.5C242.409 293.983 241.99 293.564 241.474 293.564Z" fill="#FFD73D"/>
<path d="M244.281 294.5C244.281 293.983 244.7 293.564 245.216 293.564C245.733 293.564 246.152 293.983 246.152 294.5V302.126C246.152 302.643 245.733 303.062 245.216 303.062C244.7 303.062 244.281 302.643 244.281 302.126V294.5Z" fill="#FFD73D"/>
<path d="M248.958 293.564C248.442 293.564 248.023 293.983 248.023 294.5V302.126C248.023 302.643 248.442 303.062 248.958 303.062C249.475 303.062 249.894 302.643 249.894 302.126V294.5C249.894 293.983 249.475 293.564 248.958 293.564Z" fill="#FFD73D"/>
<path d="M252.7 293.564C252.184 293.564 251.765 293.983 251.765 294.5V302.126C251.765 302.643 252.184 303.062 252.7 303.062C253.217 303.062 253.636 302.643 253.636 302.126V294.5C253.636 293.983 253.217 293.564 252.7 293.564Z" fill="#FFD73D"/>
<path d="M255.507 294.5C255.507 293.983 255.926 293.564 256.442 293.564C256.959 293.564 257.378 293.983 257.378 294.5V302.126C257.378 302.643 256.959 303.062 256.442 303.062C255.926 303.062 255.507 302.643 255.507 302.126V294.5Z" fill="#FFD73D"/>
<path d="M260.184 293.564C259.668 293.564 259.249 293.983 259.249 294.5V302.126C259.249 302.643 259.668 303.062 260.184 303.062C260.701 303.062 261.12 302.643 261.12 302.126V294.5C261.12 293.983 260.701 293.564 260.184 293.564Z" fill="#FFD73D"/>
<path d="M262.991 294.5C262.991 293.983 263.41 293.564 263.926 293.564C264.443 293.564 264.862 293.983 264.862 294.5V302.126C264.862 302.643 264.443 303.062 263.926 303.062C263.41 303.062 262.991 302.643 262.991 302.126V294.5Z" fill="#FFD73D"/>
<path d="M267.668 293.564C267.152 293.564 266.733 293.983 266.733 294.5V302.126C266.733 302.643 267.152 303.062 267.668 303.062C268.185 303.062 268.604 302.643 268.604 302.126V294.5C268.604 293.983 268.185 293.564 267.668 293.564Z" fill="#FFD73D"/>
<path d="M270.475 294.5C270.475 293.983 270.894 293.564 271.411 293.564C271.927 293.564 272.346 293.983 272.346 294.5V302.126C272.346 302.643 271.927 303.062 271.411 303.062C270.894 303.062 270.475 302.643 270.475 302.126V294.5Z" fill="#FFD73D"/>
<path d="M275.153 293.564C274.636 293.564 274.217 293.983 274.217 294.5V302.126C274.217 302.643 274.636 303.062 275.153 303.062C275.669 303.062 276.088 302.643 276.088 302.126V294.5C276.088 293.983 275.669 293.564 275.153 293.564Z" fill="#FFD73D"/>
<path d="M277.959 294.5C277.959 293.983 278.378 293.564 278.895 293.564C279.411 293.564 279.83 293.983 279.83 294.5V302.126C279.83 302.643 279.411 303.062 278.895 303.062C278.378 303.062 277.959 302.643 277.959 302.126V294.5Z" fill="#FFD73D"/>
<path d="M282.637 293.564C282.12 293.564 281.701 293.983 281.701 294.5V302.126C281.701 302.643 282.12 303.062 282.637 303.062C283.154 303.062 283.572 302.643 283.572 302.126V294.5C283.572 293.983 283.154 293.564 282.637 293.564Z" fill="#FFD73D"/>
<path d="M285.443 294.5C285.443 293.983 285.862 293.564 286.379 293.564C286.896 293.564 287.314 293.983 287.314 294.5V302.126C287.314 302.643 286.896 303.062 286.379 303.062C285.862 303.062 285.443 302.643 285.443 302.126V294.5Z" fill="#FFD73D"/>
<path d="M290.121 293.564C289.604 293.564 289.185 293.983 289.185 294.5V302.126C289.185 302.643 289.604 303.062 290.121 303.062C290.638 303.062 291.056 302.643 291.056 302.126V294.5C291.056 293.983 290.638 293.564 290.121 293.564Z" fill="#FFD73D"/>
<path d="M292.927 294.5C292.927 293.983 293.346 293.564 293.863 293.564C294.38 293.564 294.798 293.983 294.798 294.5V302.126C294.798 302.643 294.38 303.062 293.863 303.062C293.346 303.062 292.927 302.643 292.927 302.126V294.5Z" fill="#FFD73D"/>
<path d="M297.605 293.564C297.089 293.564 296.67 293.983 296.67 294.5V302.126C296.67 302.643 297.089 303.062 297.605 303.062C298.122 303.062 298.541 302.643 298.541 302.126V294.5C298.541 293.983 298.122 293.564 297.605 293.564Z" fill="#FFD73D"/>
<path fill-rule="evenodd" clip-rule="evenodd" d="M229.315 303.062C229.367 304.12 230.241 304.962 231.312 304.962H298.411C299.483 304.962 300.357 304.12 300.409 303.062H229.315Z" fill="#CCA200"/>
<rect x="223.699" y="278.368" width="71.0994" height="13.2968" rx="2" fill="#FFCA00"/>
<rect x="233.054" y="280.268" width="14.9683" height="9.49774" rx="1" fill="#FFF386"/>
<path fill-rule="evenodd" clip-rule="evenodd" d="M294.796 280.268C294.798 280.301 294.799 280.334 294.799 280.368V289.665C294.799 289.699 294.798 289.732 294.796 289.765H275.217C274.665 289.765 274.217 289.318 274.217 288.765V281.268C274.217 280.715 274.665 280.268 275.217 280.268H294.796Z" fill="#927400"/>
<path d="M223.699 281.203C223.699 280.686 224.118 280.268 224.635 280.268C225.151 280.268 225.57 280.686 225.57 281.203V288.83C225.57 289.346 225.151 289.765 224.635 289.765C224.118 289.765 223.699 289.346 223.699 288.83V281.203Z" fill="#FFD73D"/>
<path d="M227.441 281.203C227.441 280.686 227.86 280.268 228.377 280.268C228.893 280.268 229.312 280.686 229.312 281.203V288.83C229.312 289.346 228.893 289.765 228.377 289.765C227.86 289.765 227.441 289.346 227.441 288.83V281.203Z" fill="#FFD73D"/>
<path d="M231.183 281.203C231.183 280.686 231.602 280.268 232.119 280.268C232.636 280.268 233.054 280.686 233.054 281.203V288.83C233.054 289.346 232.636 289.765 232.119 289.765C231.602 289.765 231.183 289.346 231.183 288.83V281.203Z" fill="#FFD73D"/>
<path d="M235.861 280.268C235.344 280.268 234.925 280.686 234.925 281.203V288.83C234.925 289.346 235.344 289.765 235.861 289.765C236.378 289.765 236.796 289.346 236.796 288.83V281.203C236.796 280.686 236.378 280.268 235.861 280.268Z" fill="#FFD73D"/>
<path d="M238.667 281.203C238.667 280.686 239.086 280.268 239.603 280.268C240.12 280.268 240.538 280.686 240.538 281.203V288.83C240.538 289.346 240.12 289.765 239.603 289.765C239.086 289.765 238.667 289.346 238.667 288.83V281.203Z" fill="#FFD73D"/>
<path d="M243.345 280.268C242.828 280.268 242.409 280.686 242.409 281.203V288.83C242.409 289.346 242.828 289.765 243.345 289.765C243.862 289.765 244.28 289.346 244.28 288.83V281.203C244.28 280.686 243.862 280.268 243.345 280.268Z" fill="#FFD73D"/>
<path d="M247.087 280.268C246.571 280.268 246.152 280.686 246.152 281.203V288.83C246.152 289.346 246.571 289.765 247.087 289.765C247.604 289.765 248.023 289.346 248.023 288.83V281.203C248.023 280.686 247.604 280.268 247.087 280.268Z" fill="#FFD73D"/>
<path d="M249.894 281.203C249.894 280.686 250.313 280.268 250.829 280.268C251.346 280.268 251.765 280.686 251.765 281.203V288.83C251.765 289.346 251.346 289.765 250.829 289.765C250.313 289.765 249.894 289.346 249.894 288.83V281.203Z" fill="#FFD73D"/>
<path d="M254.571 280.268C254.055 280.268 253.636 280.686 253.636 281.203V288.83C253.636 289.346 254.055 289.765 254.571 289.765C255.088 289.765 255.507 289.346 255.507 288.83V281.203C255.507 280.686 255.088 280.268 254.571 280.268Z" fill="#FFD73D"/>
<path d="M257.378 281.203C257.378 280.686 257.797 280.268 258.313 280.268C258.83 280.268 259.249 280.686 259.249 281.203V288.83C259.249 289.346 258.83 289.765 258.313 289.765C257.797 289.765 257.378 289.346 257.378 288.83V281.203Z" fill="#FFD73D"/>
<path d="M262.055 280.268C261.539 280.268 261.12 280.686 261.12 281.203V288.83C261.12 289.346 261.539 289.765 262.055 289.765C262.572 289.765 262.991 289.346 262.991 288.83V281.203C262.991 280.686 262.572 280.268 262.055 280.268Z" fill="#FFD73D"/>
<path d="M264.862 281.203C264.862 280.686 265.281 280.268 265.797 280.268C266.314 280.268 266.733 280.686 266.733 281.203V288.83C266.733 289.346 266.314 289.765 265.797 289.765C265.281 289.765 264.862 289.346 264.862 288.83V281.203Z" fill="#FFD73D"/>
<path d="M269.54 280.268C269.023 280.268 268.604 280.686 268.604 281.203V288.83C268.604 289.346 269.023 289.765 269.54 289.765C270.056 289.765 270.475 289.346 270.475 288.83V281.203C270.475 280.686 270.056 280.268 269.54 280.268Z" fill="#FFD73D"/>
<path d="M272.346 281.203C272.346 280.686 272.765 280.268 273.282 280.268C273.798 280.268 274.217 280.686 274.217 281.203V288.83C274.217 289.346 273.798 289.765 273.282 289.765C272.765 289.765 272.346 289.346 272.346 288.83V281.203Z" fill="#FFD73D"/>
<path d="M277.024 280.268C276.507 280.268 276.088 280.686 276.088 281.203V288.83C276.088 289.346 276.507 289.765 277.024 289.765C277.54 289.765 277.959 289.346 277.959 288.83V281.203C277.959 280.686 277.54 280.268 277.024 280.268Z" fill="#FFD73D"/>
<path d="M279.83 281.203C279.83 280.686 280.249 280.268 280.766 280.268C281.282 280.268 281.701 280.686 281.701 281.203V288.83C281.701 289.346 281.282 289.765 280.766 289.765C280.249 289.765 279.83 289.346 279.83 288.83V281.203Z" fill="#FFD73D"/>
<path d="M284.508 280.268C283.991 280.268 283.573 280.686 283.573 281.203V288.83C283.573 289.346 283.991 289.765 284.508 289.765C285.025 289.765 285.443 289.346 285.443 288.83V281.203C285.443 280.686 285.025 280.268 284.508 280.268Z" fill="#FFD73D"/>
<path d="M287.314 281.203C287.314 280.686 287.733 280.268 288.25 280.268C288.767 280.268 289.185 280.686 289.185 281.203V288.83C289.185 289.346 288.767 289.765 288.25 289.765C287.733 289.765 287.314 289.346 287.314 288.83V281.203Z" fill="#FFD73D"/>
<path d="M291.992 280.268C291.475 280.268 291.056 280.686 291.056 281.203V288.83C291.056 289.346 291.475 289.765 291.992 289.765C292.509 289.765 292.927 289.346 292.927 288.83V281.203C292.927 280.686 292.509 280.268 291.992 280.268Z" fill="#FFD73D"/>
<path fill-rule="evenodd" clip-rule="evenodd" d="M223.702 289.765C223.754 290.823 224.628 291.665 225.699 291.665H292.799C293.87 291.665 294.744 290.823 294.796 289.765H223.702Z" fill="#CCA200"/>
<rect x="225.57" y="265.071" width="71.0994" height="13.2968" rx="2" fill="#FFCA00"/>
<rect x="234.925" y="266.971" width="14.9683" height="9.49774" rx="1" fill="#FFF386"/>
<path fill-rule="evenodd" clip-rule="evenodd" d="M296.667 266.971C296.669 267.004 296.669 267.038 296.669 267.071V276.368C296.669 276.402 296.669 276.435 296.667 276.468H277.088C276.536 276.468 276.088 276.021 276.088 275.468V267.971C276.088 267.418 276.536 266.971 277.088 266.971H296.667Z" fill="#927400"/>
<path d="M225.57 267.906C225.57 267.39 225.989 266.971 226.506 266.971C227.022 266.971 227.441 267.39 227.441 267.906V275.533C227.441 276.05 227.022 276.468 226.506 276.468C225.989 276.468 225.57 276.05 225.57 275.533V267.906Z" fill="#FFD73D"/>
<path d="M229.312 267.906C229.312 267.39 229.731 266.971 230.248 266.971C230.764 266.971 231.183 267.39 231.183 267.906V275.533C231.183 276.05 230.764 276.468 230.248 276.468C229.731 276.468 229.312 276.05 229.312 275.533V267.906Z" fill="#FFD73D"/>
<path d="M233.054 267.906C233.054 267.39 233.473 266.971 233.99 266.971C234.506 266.971 234.925 267.39 234.925 267.906V275.533C234.925 276.05 234.506 276.468 233.99 276.468C233.473 276.468 233.054 276.05 233.054 275.533V267.906Z" fill="#FFD73D"/>
<path d="M237.732 266.971C237.215 266.971 236.796 267.39 236.796 267.906V275.533C236.796 276.05 237.215 276.468 237.732 276.468C238.248 276.468 238.667 276.05 238.667 275.533V267.906C238.667 267.39 238.248 266.971 237.732 266.971Z" fill="#FFD73D"/>
<path d="M240.538 267.906C240.538 267.39 240.957 266.971 241.474 266.971C241.99 266.971 242.409 267.39 242.409 267.906V275.533C242.409 276.05 241.99 276.468 241.474 276.468C240.957 276.468 240.538 276.05 240.538 275.533V267.906Z" fill="#FFD73D"/>
<path d="M245.216 266.971C244.7 266.971 244.281 267.39 244.281 267.906V275.533C244.281 276.05 244.7 276.468 245.216 276.468C245.733 276.468 246.152 276.05 246.152 275.533V267.906C246.152 267.39 245.733 266.971 245.216 266.971Z" fill="#FFD73D"/>
<path d="M248.958 266.971C248.441 266.971 248.023 267.39 248.023 267.906V275.533C248.023 276.05 248.441 276.468 248.958 276.468C249.475 276.468 249.894 276.05 249.894 275.533V267.906C249.894 267.39 249.475 266.971 248.958 266.971Z" fill="#FFD73D"/>
<path d="M251.765 267.906C251.765 267.39 252.183 266.971 252.7 266.971C253.217 266.971 253.636 267.39 253.636 267.906V275.533C253.636 276.05 253.217 276.468 252.7 276.468C252.183 276.468 251.765 276.05 251.765 275.533V267.906Z" fill="#FFD73D"/>
<path d="M256.442 266.971C255.925 266.971 255.507 267.39 255.507 267.906V275.533C255.507 276.05 255.925 276.468 256.442 276.468C256.959 276.468 257.378 276.05 257.378 275.533V267.906C257.378 267.39 256.959 266.971 256.442 266.971Z" fill="#FFD73D"/>
<path d="M259.249 267.906C259.249 267.39 259.668 266.971 260.184 266.971C260.701 266.971 261.12 267.39 261.12 267.906V275.533C261.12 276.05 260.701 276.468 260.184 276.468C259.668 276.468 259.249 276.05 259.249 275.533V267.906Z" fill="#FFD73D"/>
<path d="M263.926 266.971C263.41 266.971 262.991 267.39 262.991 267.906V275.533C262.991 276.05 263.41 276.468 263.926 276.468C264.443 276.468 264.862 276.05 264.862 275.533V267.906C264.862 267.39 264.443 266.971 263.926 266.971Z" fill="#FFD73D"/>
<path d="M266.733 267.906C266.733 267.39 267.152 266.971 267.668 266.971C268.185 266.971 268.604 267.39 268.604 267.906V275.533C268.604 276.05 268.185 276.468 267.668 276.468C267.152 276.468 266.733 276.05 266.733 275.533V267.906Z" fill="#FFD73D"/>
<path d="M271.411 266.971C270.894 266.971 270.475 267.39 270.475 267.906V275.533C270.475 276.05 270.894 276.468 271.411 276.468C271.927 276.468 272.346 276.05 272.346 275.533V267.906C272.346 267.39 271.927 266.971 271.411 266.971Z" fill="#FFD73D"/>
<path d="M274.217 267.906C274.217 267.39 274.636 266.971 275.153 266.971C275.669 266.971 276.088 267.39 276.088 267.906V275.533C276.088 276.05 275.669 276.468 275.153 276.468C274.636 276.468 274.217 276.05 274.217 275.533V267.906Z" fill="#FFD73D"/>
<path d="M278.895 266.971C278.378 266.971 277.959 267.39 277.959 267.906V275.533C277.959 276.05 278.378 276.468 278.895 276.468C279.411 276.468 279.83 276.05 279.83 275.533V267.906C279.83 267.39 279.411 266.971 278.895 266.971Z" fill="#FFD73D"/>
<path d="M281.701 267.906C281.701 267.39 282.12 266.971 282.637 266.971C283.153 266.971 283.572 267.39 283.572 267.906V275.533C283.572 276.05 283.153 276.468 282.637 276.468C282.12 276.468 281.701 276.05 281.701 275.533V267.906Z" fill="#FFD73D"/>
<path d="M286.379 266.971C285.862 266.971 285.443 267.39 285.443 267.906V275.533C285.443 276.05 285.862 276.468 286.379 276.468C286.895 276.468 287.314 276.05 287.314 275.533V267.906C287.314 267.39 286.895 266.971 286.379 266.971Z" fill="#FFD73D"/>
<path d="M289.185 267.906C289.185 267.39 289.604 266.971 290.121 266.971C290.637 266.971 291.056 267.39 291.056 267.906V275.533C291.056 276.05 290.637 276.468 290.121 276.468C289.604 276.468 289.185 276.05 289.185 275.533V267.906Z" fill="#FFD73D"/>
<path d="M293.863 266.971C293.346 266.971 292.927 267.39 292.927 267.906V275.533C292.927 276.05 293.346 276.468 293.863 276.468C294.379 276.468 294.798 276.05 294.798 275.533V267.906C294.798 267.39 294.379 266.971 293.863 266.971Z" fill="#FFD73D"/>
<path fill-rule="evenodd" clip-rule="evenodd" d="M225.573 276.468C225.625 277.526 226.499 278.368 227.57 278.368H294.669C295.74 278.368 296.615 277.526 296.667 276.468H225.573Z" fill="#CCA200"/>
<rect x="227.441" y="251.774" width="71.0994" height="13.2968" rx="2" fill="#FFCA00"/>
<rect x="236.796" y="253.674" width="14.9683" height="9.49774" rx="1" fill="#FFF386"/>
<path fill-rule="evenodd" clip-rule="evenodd" d="M298.538 253.674C298.54 253.707 298.54 253.741 298.54 253.774V263.071C298.54 263.105 298.54 263.138 298.538 263.171H278.959C278.407 263.171 277.959 262.724 277.959 262.171V254.674C277.959 254.121 278.407 253.674 278.959 253.674H298.538Z" fill="#927400"/>
<path d="M232.119 253.674C231.602 253.674 231.183 254.093 231.183 254.61V262.236C231.183 262.753 231.602 263.172 232.119 263.172C232.635 263.172 233.054 262.753 233.054 262.236V254.61C233.054 254.093 232.635 253.674 232.119 253.674Z" fill="#FFD73D"/>
<path d="M235.861 253.674C235.344 253.674 234.925 254.093 234.925 254.61V262.236C234.925 262.753 235.344 263.172 235.861 263.172C236.377 263.172 236.796 262.753 236.796 262.236V254.61C236.796 254.093 236.377 253.674 235.861 253.674Z" fill="#FFD73D"/>
<path d="M238.667 254.61C238.667 254.093 239.086 253.674 239.603 253.674C240.119 253.674 240.538 254.093 240.538 254.61V262.236C240.538 262.753 240.119 263.172 239.603 263.172C239.086 263.172 238.667 262.753 238.667 262.236V254.61Z" fill="#FFD73D"/>
<path d="M243.345 253.674C242.828 253.674 242.409 254.093 242.409 254.61V262.236C242.409 262.753 242.828 263.172 243.345 263.172C243.861 263.172 244.28 262.753 244.28 262.236V254.61C244.28 254.093 243.861 253.674 243.345 253.674Z" fill="#FFD73D"/>
<path d="M246.152 254.61C246.152 254.093 246.57 253.674 247.087 253.674C247.604 253.674 248.023 254.093 248.023 254.61V262.236C248.023 262.753 247.604 263.172 247.087 263.172C246.57 263.172 246.152 262.753 246.152 262.236V254.61Z" fill="#FFD73D"/>
<path d="M250.829 253.674C250.312 253.674 249.894 254.093 249.894 254.61V262.236C249.894 262.753 250.312 263.172 250.829 263.172C251.346 263.172 251.765 262.753 251.765 262.236V254.61C251.765 254.093 251.346 253.674 250.829 253.674Z" fill="#FFD73D"/>
<path d="M253.636 254.61C253.636 254.093 254.054 253.674 254.571 253.674C255.088 253.674 255.507 254.093 255.507 254.61V262.236C255.507 262.753 255.088 263.172 254.571 263.172C254.054 263.172 253.636 262.753 253.636 262.236V254.61Z" fill="#FFD73D"/>
<path d="M258.313 253.674C257.797 253.674 257.378 254.093 257.378 254.61V262.236C257.378 262.753 257.797 263.172 258.313 263.172C258.83 263.172 259.249 262.753 259.249 262.236V254.61C259.249 254.093 258.83 253.674 258.313 253.674Z" fill="#FFD73D"/>
<path d="M261.12 254.61C261.12 254.093 261.539 253.674 262.055 253.674C262.572 253.674 262.991 254.093 262.991 254.61V262.236C262.991 262.753 262.572 263.172 262.055 263.172C261.539 263.172 261.12 262.753 261.12 262.236V254.61Z" fill="#FFD73D"/>
<path d="M265.797 253.674C265.281 253.674 264.862 254.093 264.862 254.61V262.236C264.862 262.753 265.281 263.172 265.797 263.172C266.314 263.172 266.733 262.753 266.733 262.236V254.61C266.733 254.093 266.314 253.674 265.797 253.674Z" fill="#FFD73D"/>
<path d="M268.604 254.61C268.604 254.093 269.023 253.674 269.54 253.674C270.056 253.674 270.475 254.093 270.475 254.61V262.236C270.475 262.753 270.056 263.172 269.54 263.172C269.023 263.172 268.604 262.753 268.604 262.236V254.61Z" fill="#FFD73D"/>
<path d="M273.282 253.674C272.765 253.674 272.346 254.093 272.346 254.61V262.236C272.346 262.753 272.765 263.172 273.282 263.172C273.798 263.172 274.217 262.753 274.217 262.236V254.61C274.217 254.093 273.798 253.674 273.282 253.674Z" fill="#FFD73D"/>
<path d="M276.088 254.61C276.088 254.093 276.507 253.674 277.024 253.674C277.54 253.674 277.959 254.093 277.959 254.61V262.236C277.959 262.753 277.54 263.172 277.024 263.172C276.507 263.172 276.088 262.753 276.088 262.236V254.61Z" fill="#FFD73D"/>
<path d="M280.766 253.674C280.249 253.674 279.83 254.093 279.83 254.61V262.236C279.83 262.753 280.249 263.172 280.766 263.172C281.282 263.172 281.701 262.753 281.701 262.236V254.61C281.701 254.093 281.282 253.674 280.766 253.674Z" fill="#FFD73D"/>
<path d="M283.572 254.61C283.572 254.093 283.991 253.674 284.508 253.674C285.024 253.674 285.443 254.093 285.443 254.61V262.236C285.443 262.753 285.024 263.172 284.508 263.172C283.991 263.172 283.572 262.753 283.572 262.236V254.61Z" fill="#FFD73D"/>
<path d="M288.25 253.674C287.733 253.674 287.314 254.093 287.314 254.61V262.236C287.314 262.753 287.733 263.172 288.25 263.172C288.766 263.172 289.185 262.753 289.185 262.236V254.61C289.185 254.093 288.766 253.674 288.25 253.674Z" fill="#FFD73D"/>
<path d="M291.056 254.61C291.056 254.093 291.475 253.674 291.992 253.674C292.508 253.674 292.927 254.093 292.927 254.61V262.236C292.927 262.753 292.508 263.172 291.992 263.172C291.475 263.172 291.056 262.753 291.056 262.236V254.61Z" fill="#FFD73D"/>
<path d="M295.734 253.674C295.218 253.674 294.799 254.093 294.799 254.61V262.236C294.799 262.753 295.218 263.172 295.734 263.172C296.251 263.172 296.67 262.753 296.67 262.236V254.61C296.67 254.093 296.251 253.674 295.734 253.674Z" fill="#FFD73D"/>
<path fill-rule="evenodd" clip-rule="evenodd" d="M227.443 263.172C227.496 264.23 228.37 265.071 229.441 265.071H296.54C297.611 265.071 298.486 264.23 298.538 263.172H227.443Z" fill="#CCA200"/>
<path d="M235.774 285.733C235.774 303.386 221.463 317.697 203.81 317.697C186.157 317.697 171.846 303.386 171.846 285.733C171.846 268.08 186.157 253.77 203.81 253.77C221.463 253.77 235.774 268.08 235.774 285.733Z" fill="#F49117"/>
<path fill-rule="evenodd" clip-rule="evenodd" d="M203.81 311.885C218.253 311.885 229.962 300.177 229.962 285.733C229.962 271.29 218.253 259.581 203.81 259.581C189.367 259.581 177.658 271.29 177.658 285.733C177.658 300.177 189.367 311.885 203.81 311.885ZM203.81 317.697C221.463 317.697 235.774 303.386 235.774 285.733C235.774 268.08 221.463 253.77 203.81 253.77C186.157 253.77 171.846 268.08 171.846 285.733C171.846 303.386 186.157 317.697 203.81 317.697Z" fill="#FFD73D"/>
<path d="M228.025 286.217C228.025 299.858 216.967 310.916 203.326 310.916C189.685 310.916 178.626 299.858 178.626 286.217C178.626 272.576 189.685 261.518 203.326 261.518C216.967 261.518 228.025 272.576 228.025 286.217Z" fill="#FFD017"/>
<path fill-rule="evenodd" clip-rule="evenodd" d="M203.326 308.979C215.897 308.979 226.087 298.788 226.087 286.217C226.087 273.646 215.897 263.455 203.326 263.455C190.755 263.455 180.564 273.646 180.564 286.217C180.564 298.788 190.755 308.979 203.326 308.979ZM203.326 310.916C216.967 310.916 228.025 299.858 228.025 286.217C228.025 272.576 216.967 261.518 203.326 261.518C189.685 261.518 178.626 272.576 178.626 286.217C178.626 299.858 189.685 310.916 203.326 310.916Z" fill="#CCA200"/>
<path d="M200.895 294.706C200.696 294.432 200.545 294.124 200.441 293.784C200.346 293.443 200.275 293.122 200.228 292.819C200.181 292.507 200.152 292.237 200.143 292.01C200.143 291.783 200.143 291.646 200.143 291.599C200.143 291.296 200.129 290.937 200.1 290.52C200.081 290.095 200.029 289.66 199.944 289.215C199.859 288.761 199.736 288.316 199.575 287.881C199.424 287.437 199.211 287.039 198.937 286.689C198.672 286.339 198.341 286.06 197.944 285.852C197.556 285.635 197.088 285.526 196.539 285.526C196.463 285.526 196.383 285.531 196.298 285.54C196.222 285.55 196.146 285.554 196.071 285.554V294.394L192.155 294.479C192.212 294.148 192.259 293.76 192.297 293.315C192.344 292.861 192.382 292.384 192.41 291.882C192.439 291.372 192.462 290.842 192.481 290.293C192.5 289.745 192.514 289.206 192.524 288.676C192.533 288.146 192.538 287.635 192.538 287.144C192.547 286.642 192.552 286.193 192.552 285.796C192.552 285.493 192.547 285.048 192.538 284.462C192.538 283.875 192.528 283.218 192.509 282.49C192.5 281.752 192.486 280.981 192.467 280.177C192.457 279.364 192.443 278.588 192.424 277.85C192.405 277.103 192.382 276.427 192.353 275.821C192.335 275.206 192.316 274.733 192.297 274.402C192.817 274.298 193.375 274.223 193.971 274.175C194.567 274.119 195.12 274.076 195.631 274.048C196.227 274.01 196.818 273.991 197.404 273.991C198.35 273.953 199.24 274.033 200.072 274.232C200.904 274.421 201.633 274.748 202.257 275.211C202.891 275.665 203.392 276.256 203.761 276.985C204.139 277.704 204.338 278.564 204.357 279.567C204.205 280.276 203.964 280.934 203.633 281.539C203.491 281.794 203.321 282.059 203.122 282.334C202.933 282.598 202.706 282.849 202.441 283.086C202.186 283.322 201.893 283.54 201.562 283.738C201.231 283.927 200.862 284.079 200.455 284.192C201.06 284.429 201.552 284.708 201.931 285.029C202.309 285.342 202.607 285.696 202.824 286.094C203.042 286.481 203.198 286.902 203.293 287.356C203.397 287.801 203.468 288.274 203.505 288.775C203.553 289.267 203.591 289.778 203.619 290.308C203.647 290.828 203.699 291.357 203.775 291.897C203.851 292.303 203.945 292.691 204.059 293.06C204.163 293.382 204.291 293.708 204.442 294.039C204.603 294.361 204.797 294.626 205.024 294.834L200.895 294.706ZM200.753 279.751C200.743 279.146 200.611 278.602 200.356 278.12C200.242 277.921 200.096 277.722 199.916 277.524C199.746 277.325 199.528 277.15 199.263 276.999C199.008 276.847 198.696 276.725 198.327 276.63C197.967 276.535 197.546 276.488 197.064 276.488C196.695 276.488 196.288 276.54 195.844 276.644L195.901 283.057C196.071 283.086 196.241 283.109 196.411 283.128C196.582 283.138 196.738 283.142 196.88 283.142C197.334 283.142 197.736 283.095 198.086 283.001C198.436 282.906 198.743 282.778 199.008 282.617C199.273 282.457 199.5 282.277 199.689 282.078C199.878 281.88 200.039 281.672 200.171 281.454C200.474 280.953 200.668 280.385 200.753 279.751Z" fill="#FFF064"/>
<path d="M205.591 300.14C205.705 298.778 205.799 297.44 205.875 296.125C205.96 294.81 206.031 293.509 206.088 292.223C206.145 290.927 206.187 289.636 206.215 288.35C206.244 287.063 206.258 285.763 206.258 284.448C206.258 282.698 206.23 280.891 206.173 279.028L209.394 278.985L209.309 280.56C209.715 279.766 210.188 279.146 210.727 278.701C211.267 278.257 211.829 278.035 212.416 278.035C213.125 278.035 213.754 278.191 214.303 278.503C214.861 278.805 215.329 279.288 215.707 279.95C216.086 280.612 216.374 281.459 216.573 282.49C216.772 283.511 216.871 284.746 216.871 286.193C216.871 287.848 216.734 289.243 216.459 290.378C216.185 291.504 215.821 292.417 215.367 293.117C214.913 293.807 214.397 294.304 213.82 294.607C213.253 294.909 212.671 295.061 212.075 295.061C211.763 295.032 211.442 294.957 211.11 294.834C210.827 294.73 210.51 294.564 210.16 294.337C209.819 294.101 209.479 293.769 209.138 293.344C209.157 294.469 209.186 295.6 209.223 296.735C209.261 297.87 209.318 299.029 209.394 300.211L205.591 300.14ZM209.11 290.492C209.204 290.672 209.318 290.866 209.45 291.074C209.583 291.272 209.725 291.461 209.876 291.641C210.037 291.811 210.207 291.953 210.387 292.067C210.567 292.18 210.76 292.237 210.969 292.237C211.252 292.237 211.531 292.124 211.806 291.897C212.089 291.66 212.34 291.296 212.558 290.804C212.775 290.303 212.95 289.66 213.083 288.874C213.225 288.08 213.295 287.129 213.295 286.023C213.295 285.115 213.248 284.334 213.154 283.682C213.068 283.019 212.95 282.476 212.799 282.05C212.648 281.615 212.468 281.298 212.26 281.099C212.052 280.891 211.834 280.787 211.607 280.787C211.418 280.787 211.233 280.858 211.054 281C210.874 281.132 210.699 281.307 210.529 281.525C210.368 281.733 210.217 281.974 210.075 282.249C209.933 282.513 209.8 282.778 209.677 283.043C209.564 283.298 209.465 283.54 209.379 283.767C209.294 283.994 209.233 284.173 209.195 284.306C209.167 285.318 209.143 286.311 209.124 287.285C209.115 288.26 209.11 289.243 209.11 290.237V290.492Z" fill="#FFF064"/>
<path d="M231.677 277.139C231.85 277.683 232.007 278.233 232.148 278.791L188.284 310.199C187.804 309.887 187.334 309.56 186.874 309.221L231.677 277.139Z" stroke="white" stroke-opacity="0.2" stroke-width="6"/>
</svg>
