<svg width="286" height="196" viewBox="0 0 286 196" fill="none" xmlns="http://www.w3.org/2000/svg">
<path d="M0.153076 189.714C0.153076 188.663 1.00483 187.812 2.05551 187.812H283.616C284.667 187.812 285.519 188.663 285.519 189.714V193.519C285.519 194.57 284.667 195.421 283.616 195.421H2.05551C1.00483 195.421 0.153076 194.57 0.153076 193.519V189.714Z" fill="black" fill-opacity="0.64"/>
<path d="M7.76294 11.836H277.909V191.616H7.76294V11.836Z" fill="#CFEFF0"/>
<path d="M7.76298 153.997L275.181 17.5433L277.909 20.396L7.76298 157.801V153.997Z" fill="#F3FDFD" fill-opacity="0.62"/>
<path d="M105.316 20.3959L7.76295 63.1863V65.0396L109.409 20.3959L105.316 20.3959Z" fill="#F3FDFD" fill-opacity="0.62"/>
<path d="M75.2995 20.3959L7.76295 49.0859V61.3452L101.905 20.3959H75.2995Z" fill="#F3FDFD" fill-opacity="0.62"/>
<path d="M7.76298 97.5819L176.263 20.3959H209.69L7.76298 116.763V97.5819Z" fill="#F3FDFD" fill-opacity="0.62"/>
<path d="M217.195 20.3959L7.76298 121.042V127.801L229.474 20.3959H217.195Z" fill="#F3FDFD" fill-opacity="0.62"/>
<path d="M277.909 27.5311L7.76298 163.669L7.76294 179.55L277.909 41.3238V27.5311Z" fill="#F3FDFD" fill-opacity="0.62"/>
<path d="M7.76296 71.656L121.006 20.3959L136.696 20.3959L7.76296 80.5265V71.656Z" fill="#F3FDFD" fill-opacity="0.62"/>
<path d="M277.909 71.7446L193.251 112.665V124.91L277.909 84.0039V71.7446Z" fill="#F3FDFD" fill-opacity="0.62"/>
<path d="M277.909 85.845L193.251 126.901V128.754L277.909 87.6983V85.845Z" fill="#F3FDFD" fill-opacity="0.62"/>
<path d="M193.251 166.466L277.909 126.095V145.276L193.251 185.647V166.466Z" fill="#F3FDFD" fill-opacity="0.62"/>
<path d="M277.909 148.292L193.251 188.662V191.616L277.909 151.665V148.292Z" fill="#F3FDFD" fill-opacity="0.62"/>
<path d="M193.251 134.196L277.909 94.3146V103.185L193.251 143.066V134.196Z" fill="#F3FDFD" fill-opacity="0.62"/>
<path fill-rule="evenodd" clip-rule="evenodd" d="M79.5821 119.324C79.3183 119.324 79.1044 119.539 79.1044 119.803C79.1044 120.065 78.8915 120.279 78.6288 120.279C78.3661 120.279 78.1532 120.065 78.1532 119.803C78.1532 119.539 77.9393 119.324 77.6755 119.324H39.6288C39.3661 119.324 39.1532 119.537 39.1532 119.799C39.1532 120.062 38.9402 120.275 38.6776 120.275C38.4149 120.275 38.202 120.062 38.202 119.799C38.202 119.537 37.989 119.324 37.7264 119.324H8.23855C7.97588 119.324 7.76294 119.111 7.76294 118.848C7.76294 118.586 7.97588 118.373 8.23855 118.373H36.2995C37.3502 118.373 38.202 117.521 38.202 116.47V86.9823C38.202 85.9316 37.3502 85.0799 36.2995 85.0799H8.23855C7.97588 85.0799 7.76294 84.867 7.76294 84.6043C7.76294 84.3416 7.97588 84.1287 8.23855 84.1287H36.2995C37.3502 84.1287 38.202 83.2769 38.202 82.2262V52.7384C38.202 51.6877 37.3502 50.836 36.2995 50.836H8.23855C7.97588 50.836 7.76294 50.6231 7.76294 50.3604C7.76294 50.0977 7.97588 49.8848 8.23855 49.8848H36.2995C37.3502 49.8848 38.202 49.033 38.202 47.9823V18.4945C38.202 17.4438 37.3502 16.5921 36.2995 16.5921H8.23855C7.97588 16.5921 7.76294 16.3792 7.76294 16.1165C7.76294 15.8538 7.97588 15.6409 8.23855 15.6409H36.2995C37.3502 15.6409 38.202 14.7891 38.202 13.7384V12.3116C38.202 12.0489 38.4149 11.836 38.6776 11.836C38.9402 11.836 39.1532 12.0489 39.1532 12.3116V13.7384C39.1532 14.7891 40.0049 15.6409 41.0556 15.6409H76.2507C77.3014 15.6409 78.1532 14.7891 78.1532 13.7384V12.3116C78.1532 12.0489 78.3661 11.836 78.6288 11.836C78.8915 11.836 79.1044 12.0489 79.1044 12.3116V13.7384C79.1044 14.7891 79.9561 15.6409 81.0068 15.6409H107.641C108.692 15.6409 109.543 14.7891 109.543 13.7384V12.3116C109.543 12.0489 109.756 11.836 110.019 11.836C110.282 11.836 110.495 12.0489 110.495 12.3116V13.7384C110.495 14.7891 111.346 15.6409 112.397 15.6409H139.031C140.082 15.6409 140.934 14.7891 140.934 13.7384V12.3116C140.934 12.0489 141.147 11.836 141.409 11.836C141.672 11.836 141.885 12.0489 141.885 12.3116V13.7384C141.885 14.7891 142.737 15.6409 143.787 15.6409H170.421C171.472 15.6409 172.324 14.7891 172.324 13.7384V12.3116C172.324 12.0489 172.537 11.836 172.799 11.836C173.062 11.836 173.275 12.0489 173.275 12.3116V13.7384C173.275 14.7891 174.127 15.6409 175.178 15.6409H201.812C202.862 15.6409 203.714 14.7891 203.714 13.7384V12.3116C203.714 12.0489 203.927 11.836 204.19 11.836C204.452 11.836 204.665 12.0489 204.665 12.3116V13.7384C204.665 14.7891 205.517 15.6409 206.568 15.6409H234.153C235.204 15.6409 236.056 14.7891 236.056 13.7384V12.3116C236.056 12.0489 236.269 11.836 236.531 11.836C236.794 11.836 237.007 12.0489 237.007 12.3116V13.7384C237.007 14.7891 237.859 15.6409 238.909 15.6409H277.434C277.696 15.6409 277.909 15.8538 277.909 16.1165C277.909 16.3792 277.696 16.5921 277.434 16.5921H238.909C237.859 16.5921 237.007 17.4438 237.007 18.4945V47.9823C237.007 49.033 237.859 49.8848 238.909 49.8848H277.434C277.696 49.8848 277.909 50.0977 277.909 50.3604C277.909 50.6231 277.696 50.836 277.434 50.836H238.909C237.859 50.836 237.007 51.6877 237.007 52.7384V82.2262C237.007 83.2769 237.859 84.1287 238.909 84.1287H277.434C277.696 84.1287 277.909 84.3416 277.909 84.6043C277.909 84.867 277.696 85.0799 277.434 85.0799H238.909C237.859 85.0799 237.007 85.9316 237.007 86.9823V116.47C237.007 117.521 237.859 118.373 238.909 118.373H277.434C277.696 118.373 277.909 118.586 277.909 118.848C277.909 119.111 277.696 119.324 277.434 119.324H237.485C237.221 119.324 237.007 119.539 237.007 119.803C237.007 120.065 236.794 120.279 236.531 120.279C236.269 120.279 236.056 120.065 236.056 119.803C236.056 119.539 235.842 119.324 235.578 119.324H205.143C204.879 119.324 204.665 119.539 204.665 119.803C204.665 120.065 204.452 120.279 204.19 120.279C203.927 120.279 203.714 120.065 203.714 119.803C203.714 119.539 203.5 119.324 203.236 119.324H173.753C173.489 119.324 173.275 119.539 173.275 119.803C173.275 120.065 173.062 120.279 172.799 120.279C172.537 120.279 172.324 120.065 172.324 119.803C172.324 119.539 172.11 119.324 171.846 119.324H142.363C142.099 119.324 141.885 119.539 141.885 119.803C141.885 120.065 141.672 120.279 141.409 120.279C141.147 120.279 140.934 120.065 140.934 119.803C140.934 119.539 140.72 119.324 140.456 119.324H110.972C110.709 119.324 110.495 119.539 110.495 119.803C110.495 120.065 110.282 120.279 110.019 120.279C109.756 120.279 109.543 120.065 109.543 119.803C109.543 119.539 109.33 119.324 109.066 119.324H79.5821ZM79.1044 116.47C79.1044 117.521 79.9561 118.373 81.0068 118.373H107.641C108.692 118.373 109.543 117.521 109.543 116.47V86.9823C109.543 85.9316 108.692 85.0799 107.641 85.0799H81.0068C79.9561 85.0799 79.1044 85.9316 79.1044 86.9823V116.47ZM110.495 116.47C110.495 117.521 111.346 118.373 112.397 118.373H139.031C140.082 118.373 140.934 117.521 140.934 116.47V86.9823C140.934 85.9316 140.082 85.0799 139.031 85.0799H112.397C111.346 85.0799 110.495 85.9316 110.495 86.9823V116.47ZM141.885 116.47C141.885 117.521 142.737 118.373 143.787 118.373H170.421C171.472 118.373 172.324 117.521 172.324 116.47V86.9823C172.324 85.9316 171.472 85.0799 170.421 85.0799H143.787C142.737 85.0799 141.885 85.9316 141.885 86.9823V116.47ZM173.275 116.47C173.275 117.521 174.127 118.373 175.178 118.373H201.812C202.862 118.373 203.714 117.521 203.714 116.47V86.9823C203.714 85.9316 202.862 85.0799 201.812 85.0799H175.178C174.127 85.0799 173.275 85.9316 173.275 86.9823V116.47ZM204.665 116.47C204.665 117.521 205.517 118.373 206.568 118.373H234.153C235.204 118.373 236.056 117.521 236.056 116.47V86.9823C236.056 85.9316 235.204 85.0799 234.153 85.0799H206.568C205.517 85.0799 204.665 85.9316 204.665 86.9823V116.47ZM39.1532 116.47C39.1532 117.521 40.0049 118.373 41.0556 118.373H76.2507C77.3014 118.373 78.1532 117.521 78.1532 116.47V86.9823C78.1532 85.9316 77.3014 85.0799 76.2507 85.0799H41.0556C40.0049 85.0799 39.1532 85.9316 39.1532 86.9823V116.47ZM41.0556 49.8848C40.0049 49.8848 39.1532 49.033 39.1532 47.9823V18.4945C39.1532 17.4438 40.0049 16.5921 41.0556 16.5921H76.2507C77.3014 16.5921 78.1532 17.4438 78.1532 18.4945V47.9823C78.1532 49.033 77.3014 49.8848 76.2507 49.8848H41.0556ZM81.0068 49.8848C79.9561 49.8848 79.1044 49.033 79.1044 47.9823V18.4945C79.1044 17.4438 79.9561 16.5921 81.0068 16.5921H107.641C108.692 16.5921 109.543 17.4438 109.543 18.4945V47.9823C109.543 49.033 108.692 49.8848 107.641 49.8848H81.0068ZM112.397 49.8848C111.346 49.8848 110.495 49.033 110.495 47.9823V18.4945C110.495 17.4438 111.346 16.5921 112.397 16.5921H139.031C140.082 16.5921 140.934 17.4438 140.934 18.4945V47.9823C140.934 49.033 140.082 49.8848 139.031 49.8848H112.397ZM143.787 49.8848C142.737 49.8848 141.885 49.033 141.885 47.9823V18.4945C141.885 17.4438 142.737 16.5921 143.787 16.5921H170.421C171.472 16.5921 172.324 17.4438 172.324 18.4945V47.9823C172.324 49.033 171.472 49.8848 170.421 49.8848H143.787ZM175.178 49.8848C174.127 49.8848 173.275 49.033 173.275 47.9823V18.4945C173.275 17.4438 174.127 16.5921 175.178 16.5921H201.812C202.862 16.5921 203.714 17.4438 203.714 18.4945V47.9823C203.714 49.033 202.862 49.8848 201.812 49.8848H175.178ZM206.568 49.8848C205.517 49.8848 204.665 49.033 204.665 47.9823V18.4945C204.665 17.4438 205.517 16.5921 206.568 16.5921H234.153C235.204 16.5921 236.056 17.4438 236.056 18.4945V47.9823C236.056 49.033 235.204 49.8848 234.153 49.8848H206.568ZM236.056 52.7384C236.056 51.6877 235.204 50.836 234.153 50.836H206.568C205.517 50.836 204.665 51.6877 204.665 52.7384V82.2262C204.665 83.2769 205.517 84.1287 206.568 84.1287H234.153C235.204 84.1287 236.056 83.2769 236.056 82.2262V52.7384ZM203.714 52.7384C203.714 51.6877 202.862 50.836 201.812 50.836H175.178C174.127 50.836 173.275 51.6877 173.275 52.7384V82.2262C173.275 83.2769 174.127 84.1287 175.178 84.1287H201.812C202.862 84.1287 203.714 83.2769 203.714 82.2262V52.7384ZM172.324 52.7384C172.324 51.6877 171.472 50.836 170.421 50.836H143.787C142.737 50.836 141.885 51.6877 141.885 52.7384V82.2262C141.885 83.2769 142.737 84.1287 143.787 84.1287H170.421C171.472 84.1287 172.324 83.2769 172.324 82.2262V52.7384ZM140.934 52.7384C140.934 51.6877 140.082 50.836 139.031 50.836H112.397C111.346 50.836 110.495 51.6877 110.495 52.7384V82.2262C110.495 83.2769 111.346 84.1287 112.397 84.1287H139.031C140.082 84.1287 140.934 83.2769 140.934 82.2262V52.7384ZM109.543 52.7384C109.543 51.6877 108.692 50.836 107.641 50.836H81.0068C79.9561 50.836 79.1044 51.6877 79.1044 52.7384V82.2262C79.1044 83.2769 79.9561 84.1287 81.0068 84.1287H107.641C108.692 84.1287 109.543 83.2769 109.543 82.2262V52.7384ZM78.1532 52.7384C78.1532 51.6877 77.3014 50.836 76.2507 50.836H41.0556C40.0049 50.836 39.1532 51.6877 39.1532 52.7384V82.2262C39.1532 83.2769 40.0049 84.1287 41.0556 84.1287H76.2507C77.3014 84.1287 78.1532 83.2769 78.1532 82.2262V52.7384Z" fill="white"/>
<path fill-rule="evenodd" clip-rule="evenodd" d="M113.348 50.836C112.298 50.836 111.446 49.9842 111.446 48.9336V19.4458C111.446 18.3951 112.298 17.5433 113.348 17.5433H139.982C141.033 17.5433 141.885 18.3951 141.885 19.4458V48.9336C141.885 49.9842 141.033 50.836 139.982 50.836H113.348ZM108.592 50.836C109.643 50.836 110.495 49.9842 110.495 48.9336V19.4458C110.495 18.3951 109.643 17.5433 108.592 17.5433H81.9581C80.9074 17.5433 80.0556 18.3951 80.0556 19.4458V48.9336C80.0556 49.9842 80.9074 50.836 81.9581 50.836H108.592ZM79.1044 48.9336C79.1044 49.9842 78.2526 50.836 77.202 50.836H8.23855C7.97588 50.836 7.76294 51.0489 7.76294 51.3116C7.76294 51.5743 7.97588 51.7872 8.23855 51.7872H77.202C78.2526 51.7872 79.1044 52.639 79.1044 53.6896V83.1774C79.1044 84.2281 78.2526 85.0799 77.202 85.0799H8.23855C7.97588 85.0799 7.76294 85.2928 7.76294 85.5555C7.76294 85.8182 7.97588 86.0311 8.23855 86.0311H77.202C78.2526 86.0311 79.1044 86.8829 79.1044 87.9335V117.421C79.1044 118.472 78.2526 119.324 77.202 119.324H8.23855C7.97588 119.324 7.76294 119.537 7.76294 119.799C7.76294 120.062 7.97588 120.275 8.23855 120.275H79.1023C79.1035 120.275 79.1044 120.276 79.1044 120.277C79.1044 120.278 79.1053 120.279 79.1065 120.279H80.0535C80.0547 120.279 80.0556 120.278 80.0556 120.277C80.0556 120.276 80.0565 120.275 80.0577 120.275H110.493C110.494 120.275 110.495 120.276 110.495 120.277C110.495 120.278 110.496 120.279 110.497 120.279H111.444C111.445 120.279 111.446 120.278 111.446 120.277C111.446 120.276 111.447 120.275 111.448 120.275H141.883C141.884 120.275 141.885 120.276 141.885 120.277C141.885 120.278 141.886 120.279 141.887 120.279H142.834C142.835 120.279 142.836 120.278 142.836 120.277C142.836 120.276 142.837 120.275 142.838 120.275H173.273C173.274 120.275 173.275 120.276 173.275 120.277C173.275 120.278 173.276 120.279 173.277 120.279H174.224C174.225 120.279 174.226 120.278 174.226 120.277C174.226 120.276 174.227 120.275 174.228 120.275H204.663C204.664 120.275 204.665 120.276 204.665 120.277C204.665 120.278 204.666 120.279 204.667 120.279H205.614C205.616 120.279 205.617 120.278 205.617 120.277C205.617 120.276 205.618 120.275 205.619 120.275H277.434C277.696 120.275 277.909 120.062 277.909 119.799C277.909 119.537 277.696 119.324 277.434 119.324H207.519C206.468 119.324 205.617 118.472 205.617 117.421V87.9335C205.617 86.8829 206.468 86.0311 207.519 86.0311H277.434C277.696 86.0311 277.909 85.8182 277.909 85.5555C277.909 85.2928 277.696 85.0799 277.434 85.0799H207.519C206.468 85.0799 205.617 84.2281 205.617 83.1774V53.6896C205.617 52.639 206.468 51.7872 207.519 51.7872H277.434C277.696 51.7872 277.909 51.5743 277.909 51.3116C277.909 51.0489 277.696 50.836 277.434 50.836H207.519C206.468 50.836 205.617 49.9842 205.617 48.9336V19.4458C205.617 18.3951 206.468 17.5433 207.519 17.5433H277.434C277.696 17.5433 277.909 17.3304 277.909 17.0677C277.909 16.805 277.696 16.5921 277.434 16.5921H207.519C206.468 16.5921 205.617 15.7403 205.617 14.6897V12.3116C205.617 12.0489 205.404 11.836 205.141 11.836C204.878 11.836 204.665 12.0489 204.665 12.3116V14.6897C204.665 15.7403 203.814 16.5921 202.763 16.5921H176.129C175.078 16.5921 174.226 15.7403 174.226 14.6897V12.3116C174.226 12.0489 174.013 11.836 173.751 11.836C173.488 11.836 173.275 12.0489 173.275 12.3116V14.6897C173.275 15.7403 172.423 16.5921 171.373 16.5921H144.739C143.688 16.5921 142.836 15.7403 142.836 14.6897V12.3116C142.836 12.0489 142.623 11.836 142.36 11.836C142.098 11.836 141.885 12.0489 141.885 12.3116V14.6897C141.885 15.7403 141.033 16.5921 139.982 16.5921H113.348C112.298 16.5921 111.446 15.7403 111.446 14.6897V12.3116C111.446 12.0489 111.233 11.836 110.97 11.836C110.708 11.836 110.495 12.0489 110.495 12.3116V14.6897C110.495 15.7403 109.643 16.5921 108.592 16.5921H81.9581C80.9074 16.5921 80.0556 15.7403 80.0556 14.6897V12.3116C80.0556 12.0489 79.8427 11.836 79.58 11.836C79.3173 11.836 79.1044 12.0489 79.1044 12.3116V14.6897C79.1044 15.7403 78.2526 16.5921 77.202 16.5921H8.23855C7.97588 16.5921 7.76294 16.805 7.76294 17.0677C7.76294 17.3304 7.97588 17.5433 8.23855 17.5433H77.202C78.2526 17.5433 79.1044 18.3951 79.1044 19.4458V48.9336ZM80.0556 117.421C80.0556 118.472 80.9074 119.324 81.9581 119.324H108.592C109.643 119.324 110.495 118.472 110.495 117.421V87.9335C110.495 86.8829 109.643 86.0311 108.592 86.0311H81.9581C80.9074 86.0311 80.0556 86.8829 80.0556 87.9335V117.421ZM80.0556 83.1774C80.0556 84.2281 80.9074 85.0799 81.9581 85.0799H108.592C109.643 85.0799 110.495 84.2281 110.495 83.1774V53.6896C110.495 52.639 109.643 51.7872 108.592 51.7872H81.9581C80.9074 51.7872 80.0556 52.639 80.0556 53.6896V83.1774ZM144.739 50.836C143.688 50.836 142.836 49.9842 142.836 48.9336V19.4458C142.836 18.3951 143.688 17.5433 144.739 17.5433H171.373C172.423 17.5433 173.275 18.3951 173.275 19.4458V48.9336C173.275 49.9842 172.423 50.836 171.373 50.836H144.739ZM176.129 50.836C175.078 50.836 174.226 49.9842 174.226 48.9336V19.4458C174.226 18.3951 175.078 17.5433 176.129 17.5433H202.763C203.814 17.5433 204.665 18.3951 204.665 19.4458V48.9336C204.665 49.9842 203.814 50.836 202.763 50.836H176.129ZM113.348 51.7872C112.298 51.7872 111.446 52.639 111.446 53.6896V83.1774C111.446 84.2281 112.298 85.0799 113.348 85.0799H139.982C141.033 85.0799 141.885 84.2281 141.885 83.1774V53.6896C141.885 52.639 141.033 51.7872 139.982 51.7872H113.348ZM144.739 51.7872C143.688 51.7872 142.836 52.639 142.836 53.6896V83.1774C142.836 84.2281 143.688 85.0799 144.739 85.0799H171.373C172.423 85.0799 173.275 84.2281 173.275 83.1774V53.6896C173.275 52.639 172.423 51.7872 171.373 51.7872H144.739ZM176.129 51.7872C175.078 51.7872 174.226 52.639 174.226 53.6896V83.1774C174.226 84.2281 175.078 85.0799 176.129 85.0799H202.763C203.814 85.0799 204.665 84.2281 204.665 83.1774V53.6896C204.665 52.639 203.814 51.7872 202.763 51.7872H176.129ZM202.763 86.0311C203.814 86.0311 204.665 86.8829 204.665 87.9335V117.421C204.665 118.472 203.814 119.324 202.763 119.324H176.129C175.078 119.324 174.226 118.472 174.226 117.421V87.9335C174.226 86.8829 175.078 86.0311 176.129 86.0311H202.763ZM173.275 87.9335C173.275 86.8829 172.423 86.0311 171.373 86.0311H144.739C143.688 86.0311 142.836 86.8829 142.836 87.9335V117.421C142.836 118.472 143.688 119.324 144.739 119.324H171.373C172.423 119.324 173.275 118.472 173.275 117.421V87.9335ZM139.982 86.0311C141.033 86.0311 141.885 86.8829 141.885 87.9335V117.421C141.885 118.472 141.033 119.324 139.982 119.324H113.348C112.298 119.324 111.446 118.472 111.446 117.421V87.9335C111.446 86.8829 112.298 86.0311 113.348 86.0311H139.982Z" fill="#1B1D50"/>
<path d="M237.007 11.836H246.519V191.616H237.007V11.836Z" fill="#1B1D50"/>
<path d="M39.1531 11.836H48.6653V191.616H39.1531V11.836Z" fill="#1B1D50"/>
<path d="M92.4214 86.0311H193.251V191.616H92.4214V86.0311Z" fill="#F2CE8A"/>
<path d="M142.836 108.86V86.0311H141.885V108.86H92.4214V109.812H193.251V108.86H142.836Z" fill="#CFA85D"/>
<path d="M193.251 132.641V133.592H92.4214V132.641H193.251Z" fill="#CFA85D"/>
<path d="M193.251 182.104V183.056H92.4214V182.104H193.251Z" fill="#CFA85D"/>
<path d="M92.4214 157.373V158.324H193.251V157.373H92.4214Z" fill="#CFA85D"/>
<path d="M175.177 149.763H183.738V165.934H175.177V149.763Z" fill="#C4C4C4"/>
<path d="M180.171 153.981H178.744V155.387H180.171V153.981Z" fill="#0D0D0D"/>
<path d="M180.171 157.497H178.744V158.903H180.171V157.497Z" fill="#0D0D0D"/>
<path d="M176.604 161.012H178.031V162.418H176.604V161.012Z" fill="#0D0D0D"/>
<path d="M182.312 161.012H180.885V162.418H182.312V161.012Z" fill="#0D0D0D"/>
<path d="M116.202 164.982H107.641L107.641 148.812H116.202L116.202 164.982Z" fill="#C4C4C4"/>
<path d="M109.068 153.733H110.495V152.327H109.068V153.733Z" fill="#0D0D0D"/>
<path d="M114.775 153.733H113.348V152.327H114.775V153.733Z" fill="#0D0D0D"/>
<path d="M111.208 157.249H112.635V155.842H111.208V157.249Z" fill="#0D0D0D"/>
<path d="M111.208 160.764H112.635V159.358H111.208V160.764Z" fill="#0D0D0D"/>
<path d="M122.86 109.812H168.519V191.617H122.86V109.812Z" fill="#F3FDFD"/>
<path d="M159.007 119.583C159.007 117.864 160.4 116.47 162.12 116.47H162.552C164.271 116.47 165.665 117.864 165.665 119.583C165.665 121.303 164.271 122.696 162.552 122.696H162.12C160.4 122.696 159.007 121.303 159.007 119.583Z" fill="#D1CECE"/>
<path d="M161.226 122.696H163.446V178.732H162.566C164.279 178.739 165.665 180.13 165.665 181.845C165.665 183.564 164.271 184.958 162.552 184.958H162.12C160.4 184.958 159.007 183.564 159.007 181.845C159.007 180.13 160.393 178.739 162.106 178.732H161.226V122.696Z" fill="#D1CECE"/>
<path d="M94.3237 58.4457H191.348V83.1774H94.3237V58.4457Z" fill="#CFEFF0"/>
<path fill-rule="evenodd" clip-rule="evenodd" d="M190.397 59.397H95.2749V82.2262H190.397V59.397ZM94.3237 58.4457V83.1774H191.348V58.4457H94.3237Z" fill="#1B1D50"/>
<path d="M96.8997 75.8352H99.5667V66.3834H96.7465V64.7485H104.083C104.805 64.7485 105.449 64.7553 106.014 64.7689C106.587 64.7825 107.087 64.7996 107.516 64.82C107.952 64.8404 108.33 64.8677 108.651 64.9018C108.971 64.9358 109.247 64.9733 109.478 65.0142C110.037 65.1163 110.51 65.2628 110.899 65.4535C111.294 65.6443 111.614 65.8725 111.859 66.1382C112.104 66.4038 112.281 66.7036 112.39 67.0374C112.506 67.3643 112.564 67.7186 112.564 68.1C112.564 68.3725 112.506 68.6518 112.39 68.9379C112.275 69.2172 112.094 69.4863 111.849 69.7452C111.611 69.9972 111.307 70.2288 110.94 70.44C110.578 70.6512 110.153 70.8215 109.662 70.9509C110.16 71.0122 110.602 71.1348 110.991 71.3188C111.386 71.4959 111.716 71.7173 111.982 71.983C112.254 72.2418 112.459 72.5347 112.595 72.8617C112.738 73.1887 112.809 73.5293 112.809 73.8835C112.809 74.2991 112.752 74.684 112.636 75.0382C112.52 75.3856 112.329 75.699 112.064 75.9783C111.805 76.2576 111.464 76.4994 111.042 76.7038C110.619 76.9013 110.102 77.058 109.489 77.1738C108.828 77.2964 108.068 77.3782 107.21 77.419C106.358 77.4531 105.374 77.4701 104.257 77.4701H96.8997V75.8352ZM104.257 78.1854C105.34 78.1854 106.335 78.1718 107.241 78.1445C108.153 78.1241 108.95 78.0457 109.632 77.9095C110.395 77.7596 111.028 77.545 111.532 77.2658C112.036 76.9796 112.435 76.6561 112.728 76.295C113.027 75.934 113.235 75.5423 113.351 75.1199C113.474 74.6976 113.535 74.2718 113.535 73.8427C113.535 73.5429 113.491 73.25 113.402 72.9639C113.314 72.671 113.177 72.3985 112.993 72.1464C112.809 71.8944 112.574 71.6662 112.288 71.4618C112.002 71.2507 111.662 71.0769 111.266 70.9407C111.968 70.5933 112.482 70.1846 112.809 69.7145C113.136 69.2377 113.3 68.6995 113.3 68.1C113.3 67.5074 113.14 66.9454 112.82 66.414C112.499 65.8759 111.975 65.4229 111.246 65.055C111.655 65.1572 112.012 65.3071 112.319 65.5046C112.626 65.6954 112.881 65.9202 113.085 66.179C113.297 66.4379 113.453 66.724 113.555 67.0374C113.658 67.3507 113.709 67.6777 113.709 68.0183C113.709 68.6382 113.583 69.1798 113.331 69.643C113.079 70.0994 112.673 70.5252 112.115 70.9203C112.769 71.2677 113.235 71.6934 113.514 72.1975C113.801 72.6948 113.944 73.2432 113.944 73.8427C113.944 74.374 113.869 74.8781 113.719 75.355C113.569 75.825 113.324 76.2542 112.983 76.6424C112.649 77.0239 112.213 77.3543 111.675 77.6336C111.144 77.9197 110.49 78.1377 109.713 78.2876C109.025 78.4238 108.235 78.5056 107.343 78.5328C106.457 78.5601 105.429 78.5737 104.257 78.5737H97.5537V78.1854H104.257ZM105.687 70.3685C106.525 70.3685 107.217 70.3276 107.762 70.2459C108.313 70.1641 108.753 70.0381 109.08 69.8678C109.407 69.6907 109.635 69.4727 109.764 69.2138C109.901 68.9482 109.969 68.6314 109.969 68.2635C109.969 67.8957 109.853 67.5653 109.621 67.2724C109.39 66.9795 109.018 66.7547 108.508 66.598C108.16 66.4958 107.758 66.4345 107.302 66.414C106.845 66.3936 106.307 66.3834 105.687 66.3834H101.896V70.3685H105.687ZM102.632 67.0987H105.687C106.205 67.0987 106.651 67.1123 107.026 67.1395C107.401 67.16 107.721 67.2008 107.986 67.2622C108.252 67.3235 108.477 67.4052 108.661 67.5074C108.845 67.6028 109.008 67.7254 109.151 67.8752C109.015 67.8139 108.852 67.7594 108.661 67.7118C108.477 67.6641 108.249 67.6232 107.976 67.5891C107.704 67.5551 107.38 67.5312 107.006 67.5176C106.638 67.4972 106.198 67.487 105.687 67.487H103.041V69.7554H102.632V67.0987ZM97.3596 67.0987H99.1375V67.5074H97.3596V67.0987ZM105.882 75.8352C106.583 75.8352 107.186 75.8182 107.69 75.7841C108.194 75.7432 108.63 75.6547 108.998 75.5184C109.23 75.4299 109.42 75.3243 109.57 75.2017C109.727 75.0791 109.85 74.9462 109.938 74.8032C110.027 74.6533 110.088 74.4932 110.122 74.3229C110.156 74.1526 110.173 73.9755 110.173 73.7916C110.173 73.342 110.033 72.9537 109.754 72.6267C109.482 72.2929 109.056 72.0409 108.477 71.8706C108.123 71.7684 107.717 71.7071 107.261 71.6866C106.805 71.6594 106.287 71.6458 105.708 71.6458H101.896V75.8352H105.882ZM102.632 72.361H105.687C106.205 72.361 106.661 72.3781 107.057 72.4121C107.452 72.4462 107.792 72.5007 108.078 72.5756C108.371 72.6437 108.62 72.7323 108.824 72.8413C109.029 72.9435 109.202 73.0695 109.345 73.2194C109.168 73.1376 108.978 73.0695 108.773 73.015C108.576 72.9537 108.337 72.9026 108.058 72.8617C107.779 72.8208 107.448 72.7936 107.067 72.78C106.685 72.7595 106.226 72.7493 105.687 72.7493H103.041V75.2221H102.632V72.361Z" fill="#1B1D50"/>
<path d="M116.416 72.5756C116.416 71.9421 116.549 71.312 116.815 70.6852C117.081 70.0585 117.472 69.4965 117.99 68.9992C118.515 68.4952 119.162 68.0864 119.932 67.7731C120.701 67.4597 121.587 67.303 122.588 67.303C122.908 67.303 123.249 67.3269 123.61 67.3746C123.978 67.4222 124.342 67.5006 124.703 67.6096C125.071 67.7186 125.429 67.865 125.776 68.049C126.124 68.2261 126.44 68.4441 126.727 68.7029V67.6096H131.12V69.3467H128.872V75.9374H131.12V77.4701H126.727V76.1418C126.461 76.4074 126.158 76.6424 125.817 76.8468C125.483 77.0512 125.126 77.2215 124.744 77.3577C124.37 77.494 123.978 77.5961 123.569 77.6643C123.167 77.7392 122.765 77.7767 122.363 77.7767C121.382 77.7767 120.521 77.637 119.778 77.3577C119.036 77.0784 118.416 76.7038 117.919 76.2337C117.421 75.7569 117.047 75.2051 116.795 74.5784C116.542 73.9448 116.416 73.2773 116.416 72.5756ZM129.608 70.0619H131.856V68.3862H132.265V70.4502H130.017V75.3243H129.608V70.0619ZM118.634 72.4939C118.634 73.0593 118.733 73.5702 118.93 74.0266C119.134 74.483 119.41 74.8713 119.758 75.1915C120.105 75.5116 120.517 75.7603 120.994 75.9374C121.471 76.1145 121.985 76.2031 122.537 76.2031C122.857 76.2031 123.181 76.1724 123.508 76.1111C123.842 76.043 124.162 75.9442 124.468 75.8148C124.782 75.6785 125.075 75.5116 125.347 75.3141C125.626 75.1097 125.865 74.8713 126.062 74.5988C126.267 74.3195 126.427 74.0027 126.543 73.6485C126.665 73.2943 126.727 72.8992 126.727 72.4632C126.727 71.9795 126.614 71.5231 126.389 71.094C126.165 70.658 125.861 70.2765 125.48 69.9495C125.105 69.6226 124.666 69.3637 124.162 69.173C123.658 68.9822 123.126 68.8868 122.568 68.8868C122.009 68.8868 121.488 68.972 121.004 69.1423C120.528 69.3126 120.112 69.5544 119.758 69.8678C119.41 70.1811 119.134 70.5626 118.93 71.0122C118.733 71.455 118.634 71.9489 118.634 72.4939ZM119.339 72.545C119.339 72.1158 119.417 71.7241 119.574 71.3699C119.737 71.0088 119.962 70.6989 120.248 70.44C120.534 70.1743 120.875 69.97 121.27 69.8269C121.665 69.6771 122.098 69.6021 122.568 69.6021C122.922 69.6021 123.242 69.643 123.528 69.7247C123.814 69.7997 124.063 69.895 124.274 70.0108C124.485 70.1198 124.659 70.2356 124.795 70.3583C124.932 70.4741 125.027 70.5763 125.081 70.6648C124.714 70.4604 124.336 70.297 123.947 70.1743C123.559 70.0517 123.099 69.9904 122.568 69.9904C122.139 69.9904 121.75 70.0619 121.403 70.205C121.062 70.3412 120.769 70.5286 120.524 70.767C120.279 71.0054 120.088 71.2813 119.952 71.5947C119.823 71.908 119.758 72.2384 119.758 72.5858C119.758 72.9128 119.795 73.2194 119.87 73.5055C119.945 73.7916 120.064 74.0572 120.228 74.3025C120.398 74.5409 120.616 74.7623 120.882 74.9667C121.154 75.1642 121.481 75.3379 121.863 75.4878C121.434 75.4129 121.059 75.2868 120.739 75.1097C120.425 74.9258 120.163 74.7044 119.952 74.4455C119.748 74.1867 119.594 73.8972 119.492 73.577C119.39 73.25 119.339 72.906 119.339 72.545ZM131.856 78.1854V76.5096H132.265V78.5737H127.34V78.1854H131.856ZM117.735 77.0307C118.014 77.2555 118.331 77.4565 118.685 77.6336C119.039 77.8175 119.417 77.9708 119.819 78.0934C120.221 78.2229 120.637 78.3216 121.066 78.3898C121.502 78.4579 121.938 78.4919 122.374 78.4919C123.13 78.4919 123.835 78.3966 124.489 78.2058C125.15 78.0219 125.735 77.763 126.246 77.4292V77.8993C125.735 78.2058 125.143 78.4442 124.468 78.6146C123.801 78.7917 123.106 78.8802 122.384 78.8802C121.887 78.8802 121.4 78.8394 120.923 78.7576C120.446 78.6827 120.003 78.5669 119.594 78.4102C119.186 78.2535 118.821 78.0594 118.501 77.8278C118.181 77.5961 117.925 77.3305 117.735 77.0307Z" fill="#1B1D50"/>
<path d="M135.157 75.9374H137.405V69.3467H135.157V67.6096H139.601V69.1525C139.813 68.8937 140.065 68.6518 140.358 68.427C140.657 68.2022 140.991 68.0081 141.359 67.8446C141.727 67.6743 142.125 67.5415 142.555 67.4461C142.984 67.3507 143.433 67.303 143.903 67.303C144.612 67.303 145.256 67.4052 145.835 67.6096C146.414 67.8071 146.907 68.1171 147.316 68.5394C147.725 68.955 148.038 69.4829 148.256 70.1232C148.481 70.7568 148.593 71.5095 148.593 72.3815V75.9374H150.841V77.4701H144.659V75.9374H146.397V73.25C146.397 72.6982 146.369 72.2078 146.315 71.7786C146.267 71.3426 146.196 71.002 146.1 70.7568C145.978 70.4434 145.821 70.1777 145.63 69.9598C145.446 69.7418 145.235 69.5647 144.997 69.4284C144.765 69.2922 144.51 69.1934 144.23 69.1321C143.951 69.0708 143.655 69.0401 143.341 69.0401C143.008 69.0401 142.66 69.1014 142.299 69.224C141.945 69.3467 141.597 69.5204 141.257 69.7452C140.923 69.9632 140.61 70.222 140.317 70.5218C140.031 70.8215 139.792 71.1451 139.601 71.4925V75.9374H141.339V77.4701H135.157V75.9374ZM149.329 72.453C149.329 71.8535 149.282 71.2983 149.186 70.7874C149.098 70.2697 148.961 69.8065 148.777 69.3978C148.593 68.9822 148.365 68.6246 148.093 68.3248C147.827 68.0251 147.517 67.7867 147.163 67.6096C147.626 67.7254 148.021 67.9229 148.348 68.2022C148.675 68.4747 148.941 68.8221 149.145 69.2445C149.35 69.6668 149.5 70.1539 149.595 70.7057C149.69 71.2575 149.738 71.8637 149.738 72.5245V75.3243H149.329V72.453ZM140.337 71.7479C140.508 71.4482 140.708 71.1757 140.94 70.9305C141.179 70.6852 141.434 70.4775 141.706 70.3072C141.986 70.1301 142.275 69.9938 142.575 69.8984C142.882 69.8031 143.185 69.7554 143.484 69.7554C143.954 69.7554 144.336 69.844 144.629 70.0211C144.922 70.1982 145.136 70.423 145.273 70.6955C145.061 70.5388 144.813 70.4059 144.527 70.297C144.247 70.188 143.893 70.1335 143.464 70.1335C143.198 70.1335 142.929 70.1846 142.657 70.2867C142.384 70.3821 142.125 70.5115 141.88 70.675C141.635 70.8385 141.414 71.0259 141.216 71.237C141.018 71.4482 140.862 71.6628 140.746 71.8808V75.3243H140.337V71.7479ZM135.77 70.0619H136.975V70.4502H135.77V70.0619ZM151.577 78.1854V76.5096H151.986V78.5737H145.273V78.1854H151.577ZM142.074 78.1854V76.5096H142.483V78.5737H135.77V78.1854H142.074Z" fill="#1B1D50"/>
<path d="M153.703 75.9374H155.951V64.7485H153.703V63.2158H158.147V72.6369L163.389 69.3467H161.734V67.6096H168.437V69.3467H165.893L162.102 71.6764L166.455 75.9374H168.672V77.4701H162.327V75.9374H163.665L160.385 72.7289L158.147 74.1083V75.9374H159.885V77.4701H153.703V75.9374ZM158.863 63.7369H159.271V71.2983L158.863 71.5436V63.7369ZM154.316 65.4638H155.521V65.852H154.316V65.4638ZM166.434 69.97H169.173V68.1818H169.582V70.3583H166.516L163.911 71.8706L167.436 75.3243H166.864L163.257 71.799L166.434 69.97ZM158.863 74.5171L160.671 73.3931L160.947 73.669L159.251 74.7214V75.3243H158.863V74.5171ZM169.408 78.1854V76.5096H169.817V78.5737H162.94V78.1854H169.408ZM160.62 78.1854V76.5096H161.029V78.5737H154.316V78.1854H160.62Z" fill="#1B1D50"/>
<path d="M173.275 64.1531H188.495V78.4214H173.275V64.1531Z" fill="#EDECEC"/>
<path fill-rule="evenodd" clip-rule="evenodd" d="M186.592 66.0555H175.177V76.5189H186.592V66.0555ZM173.275 64.1531V78.4214H188.495V64.1531H173.275Z" fill="#1B1D50"/>
<path d="M181.66 68.9663C182.86 68.4299 183.953 67.9416 184.69 67.0067C184.648 68.2019 183.645 69.5794 182.545 70.5482C182.091 70.948 181.51 71.2203 180.722 71.5891C179.645 72.0937 178.181 72.7792 176.129 74.2195C176.707 72.642 177.313 71.6385 178.766 70.5482C179.718 69.8341 180.722 69.3855 181.66 68.9663Z" fill="#1B1D50"/>
<path d="M181.428 72.0974C182.187 71.826 182.864 71.5842 183.414 70.9201C183.294 71.8876 182.417 72.8676 181.565 73.4824C181.318 73.6607 181.007 73.7852 180.579 73.9568C179.891 74.2325 178.899 74.6299 177.379 75.5677C177.872 74.3658 178.559 73.6447 179.573 72.9649C180.226 72.5267 180.851 72.3035 181.428 72.0974Z" fill="#1B1D50"/>
<path d="M0.153076 2.32383C0.153076 1.27314 1.00483 0.421387 2.05551 0.421387H282.665C283.716 0.421387 284.568 1.27314 284.568 2.32383V9.93358C284.568 10.9843 283.716 11.836 282.665 11.836H2.05551C1.00482 11.836 0.153076 10.9843 0.153076 9.93358V2.32383Z" fill="#C4C4C4"/>
<path d="M7.76294 11.836H277.909V20.397H7.76294V11.836Z" fill="black" fill-opacity="0.58"/>
</svg>
