<svg width="194" height="195" viewBox="0 0 194 195" fill="none" xmlns="http://www.w3.org/2000/svg">
<ellipse cx="107.075" cy="99.8974" rx="86.7365" ry="88.327" fill="#8DDBDB"/>
<path d="M83.9857 184.544C132.887 184.544 172.529 144.175 172.529 94.377C172.529 58.3748 151.809 27.3007 121.85 12.8467C117.048 12.0077 112.112 11.5705 107.075 11.5705C59.172 11.5705 20.3387 51.1158 20.3387 99.8974C20.3387 139.859 46.399 173.622 82.1572 184.525C82.7652 184.538 83.3747 184.544 83.9857 184.544Z" fill="#BDF0F1" fill-opacity="0.27"/>
<path d="M191.437 120.509C192.99 113.896 193.812 106.995 193.812 99.8975C193.812 77.8673 185.892 57.7209 172.793 42.2498C172.337 42.1685 171.848 42.5085 171.848 43.0573V48.5994C171.848 49.051 171.488 49.4172 171.045 49.4172H167.628C167.302 49.4172 167.009 49.217 166.885 48.9103L165.226 44.7995C165.102 44.4928 164.809 44.2926 164.483 44.2926H159.677C159.296 44.2926 158.967 44.5655 158.89 44.9458L157.271 49.2272C157.199 49.5844 157.768 50.7193 158.085 50.8885L160.801 52.5498C161.285 52.8081 162.757 53.7108 162.365 54.0988L161.616 54.7649C161.466 54.9135 160.467 55.13 160.258 55.13L155.098 55.0418C154.655 55.0418 153.198 55.9746 153.198 56.4263C153.198 56.4263 151.092 60.323 152.926 62.5178C154.114 63.9391 154.475 65.0098 158.317 65.5635C162.159 66.1173 164.863 62.6561 168.404 64.7329C169.2 65.1992 171.859 67.158 171.045 66.6711C171.045 66.6711 175.589 69.1631 176.008 69.44C176.427 69.7168 176.7 70.6043 177.094 71.3782C180.256 77.5922 180.056 86.9805 180.081 87.1607C180.106 87.3409 179.875 88.781 179.571 89.6322C179.266 90.4834 176.551 95.7442 176.279 96.0211C176.008 96.298 174.922 97.6824 174.65 98.5131C174.379 99.3437 174.65 104.328 174.65 104.328C174.65 104.519 174.922 105.712 175.465 106.543C176.008 107.373 183.482 116.298 183.883 116.788C184.283 117.278 185.241 118.449 185.784 118.726C186.327 119.003 191.437 120.509 191.437 120.509Z" fill="#369434"/>
<path d="M80.7563 15.7496C80.8329 15.6986 80.9161 15.6584 81.0038 15.6303C83.6659 14.777 86.3835 14.0509 89.1496 13.459C89.2667 13.434 89.3874 13.4305 89.5059 13.4483L90.3354 13.5735C90.5142 13.6005 90.6787 13.688 90.8026 13.822L93.4228 16.6571C93.6618 16.9157 93.7096 17.3017 93.5412 17.6127L90.8404 22.5976C90.6991 22.8584 90.4297 23.0203 90.1372 23.0203H85.58C85.334 23.0203 85.1015 22.9054 84.9492 22.7086L80.513 16.9749C80.2212 16.5977 80.3097 16.047 80.7044 15.7842L80.7563 15.7496Z" fill="#369434"/>
<path d="M20.3638 101.329C20.3537 101.274 20.3482 101.218 20.3475 101.162C20.3417 100.741 20.3387 100.32 20.3387 99.8975C20.3387 68.6419 36.2808 41.1782 60.3362 25.4784C60.4692 25.3917 60.6211 25.3383 60.779 25.3222L61.1252 25.2869C61.2388 25.2754 61.3536 25.2886 61.4619 25.3258L76.3 30.4255C76.8206 30.6044 77.36 30.2101 77.36 29.6506V29.2133C77.36 28.5287 78.1366 28.1471 78.6628 28.573L84.5636 33.3494C84.9101 33.6299 85.414 33.572 85.6905 33.2201L87.3425 31.1172C87.504 30.9116 87.7527 30.7978 88.0108 30.8113L95.2799 31.1909C95.3792 31.1961 95.4766 31.22 95.5673 31.2614L100.94 33.7138C101.14 33.8051 101.367 33.8092 101.57 33.7253L107.177 31.4059C107.48 31.2807 107.678 30.981 107.678 30.6482C107.678 30.6482 107.678 26.9478 107.678 26.4961C107.678 26.0445 108.037 25.6783 108.481 25.6783H131.57C132.014 25.6783 132.373 26.0445 132.373 26.4961V30.5764C132.373 30.9441 132.132 31.2666 131.784 31.3646L123.526 33.6908C123.178 33.7888 122.937 34.1113 122.937 34.4791V39.5816C122.937 40.0333 123.296 40.3995 123.74 40.3995H127.391C128.159 40.3995 128.489 41.3919 127.879 41.867L123.252 45.4699C123.053 45.6247 122.937 45.8649 122.937 46.1196V60.0149C122.937 60.8536 121.845 61.1489 121.436 60.4207L116.618 51.8334C116.548 51.7098 116.512 51.5699 116.512 51.4276V38.9682C116.512 38.5166 116.152 38.1504 115.709 38.1504H112.697C112.254 38.1504 111.894 38.5166 111.894 38.9682V41.8307C111.894 42.2824 111.534 42.6485 111.091 42.6485H103.976C103.662 42.6485 103.377 42.8346 103.246 43.1249L100.441 49.3429C100.235 49.7999 100.478 50.3363 100.954 50.4719L104.35 51.4403C104.755 51.5557 105.004 51.9689 104.921 52.3883L101.281 70.9257C101.262 71.0202 101.227 71.1106 101.178 71.1927L97.7579 76.8751C97.5689 77.1891 97.6093 77.5931 97.8567 77.8618L100.787 81.0453C101.385 81.694 100.68 82.7103 99.8797 82.3539L94.2295 79.8366C93.977 79.7241 93.6854 79.7514 93.4572 79.9088L88.4603 83.3559C88.0249 83.6562 87.9857 84.2945 88.381 84.6477L96.78 92.1534C97.1338 92.4696 97.1459 93.0265 96.8062 93.3584L87.7936 102.162C87.6678 102.285 87.506 102.362 87.3329 102.383L75.1028 103.871C74.6057 103.931 74.2836 104.435 74.4301 104.922C74.4303 104.923 74.4302 104.922 74.4305 104.923C74.4378 104.948 75.9948 110.146 76.3489 111.527C76.6583 112.734 76.9541 115.467 76.9262 116.285C76.921 116.437 76.8793 116.587 76.85 116.736C76.7096 117.449 76.2193 119.637 75.4076 120.11C74.4344 120.677 72.8773 118.319 72.5472 117.895L61.5533 102.937C61.2949 102.605 60.8304 102.529 60.4829 102.762L54.5358 106.742C54.2555 106.929 54.1192 107.274 54.1939 107.607L54.9972 111.186C55.1811 112.005 54.178 112.54 53.6214 111.92L45.1766 102.509C45.0835 102.406 44.9657 102.328 44.8345 102.284L30.3777 97.4439L25.384 96.2332C24.5524 96.0315 24.0282 97.1167 24.6926 97.6644L30.1567 102.169C30.2997 102.287 30.4781 102.351 30.662 102.351H34.7948C35.2384 102.351 35.5979 102.717 35.5979 103.169V106.433C35.5979 106.8 35.3582 107.122 35.0114 107.221L25.6652 109.886C25.5947 109.906 25.5219 109.916 25.4487 109.916H22.6115C22.225 109.916 21.8934 109.636 21.8221 109.249L20.3638 101.329Z" fill="#369434"/>
<path d="M26.4057 131.569C26.2978 131.702 26.1052 131.632 26.045 131.472C24.297 126.823 22.9238 121.985 21.9629 116.997C21.9509 116.935 21.945 116.872 21.945 116.809V115.082C21.945 114.61 22.3369 114.235 22.7998 114.266L27.9121 114.602C28.0793 114.613 28.2456 114.57 28.3878 114.48L33.7512 111.085C34.3848 110.684 35.1662 111.303 34.9407 112.027L30.4249 126.53C30.3937 126.63 30.3439 126.723 30.2781 126.804L26.4057 131.569Z" fill="#369434"/>
<path d="M97.4379 16.2731V16.4825C97.4379 16.8436 97.6705 17.162 98.0102 17.2658L102.427 18.6152C102.943 18.7727 103.461 18.3797 103.461 17.8319V16.2731C103.461 15.8214 103.102 15.4553 102.658 15.4553H98.241C97.7974 15.4553 97.4379 15.8214 97.4379 16.2731Z" fill="#369434"/>
<path d="M120.661 79.4584L118.074 71.8057C117.779 70.9328 116.512 71.1487 116.512 72.0719V83.7164C116.512 83.8688 116.47 84.0182 116.391 84.1477L111.192 92.6772C110.739 93.4206 111.594 94.2717 112.314 93.7933L118.828 89.4609C119.016 89.3363 119.143 89.1379 119.181 88.9133L120.694 79.8618C120.716 79.7267 120.705 79.588 120.661 79.4584Z" fill="#369434"/>
<path d="M123.037 67.1838H124.744C125.187 67.1838 125.547 67.5499 125.547 68.0016V69.378C125.547 70.0618 124.772 70.4436 124.245 70.0192L122.538 68.6429C121.941 68.1617 122.275 67.1838 123.037 67.1838Z" fill="#369434"/>
<path d="M95.1233 134.247C94.5263 134.247 94.138 134.887 94.405 135.43L95.2081 137.066C95.3441 137.343 95.6222 137.518 95.9264 137.518H99.813C99.9664 137.518 100.117 137.473 100.246 137.389L102.756 135.754C103.431 135.313 103.125 134.247 102.323 134.247H95.1233Z" fill="#369434"/>
<path d="M95.4301 125.485V123.155C95.4301 122.929 95.5319 122.716 95.7063 122.576L96.3704 122.045C96.8181 121.686 97.4317 122.196 97.1771 122.715L96.918 123.242C96.8096 123.463 97.0107 123.71 97.2438 123.642C97.5005 123.567 97.7034 123.868 97.5432 124.085L97.1325 124.643C96.9779 124.853 97.0477 125.154 97.2782 125.272C97.6681 125.47 97.5294 126.068 97.0935 126.068H96.7513C96.6747 126.068 96.5991 126.087 96.5305 126.122L96.4814 126.147C95.9984 126.392 95.4301 126.035 95.4301 125.485Z" fill="#369434"/>
<path d="M108.701 124.877L107.451 124.513C106.703 124.295 106.118 125.181 106.599 125.805L107.226 126.617C107.259 126.66 107.288 126.707 107.312 126.756L108.481 129.135L109.139 130.81C109.23 131.044 109.422 131.221 109.659 131.291L113.832 132.531C114.007 132.583 114.194 132.573 114.363 132.502L117.268 131.284C117.429 131.216 117.607 131.204 117.775 131.248L120.34 131.925C121.111 132.129 121.672 131.187 121.137 130.585L119.311 128.53C119.188 128.392 119.024 128.301 118.844 128.271L109.958 126.794C109.569 126.729 109.284 126.387 109.284 125.987V125.663C109.284 125.298 109.046 124.977 108.701 124.877Z" fill="#369434"/>
<path d="M107.104 143.74L101.422 146.633C101.311 146.689 101.188 146.719 101.063 146.719H91.0464C90.775 146.719 90.522 146.859 90.3737 147.09L87.7301 151.218C87.645 151.351 87.5997 151.506 87.5997 151.665V157.925C87.5997 158.461 88.0985 158.852 88.6079 158.715L97.6535 156.282C98.001 156.189 98.3672 156.342 98.5501 156.657L103.06 164.429C103.283 164.813 103.766 164.945 104.147 164.725L113.695 159.221C113.947 159.076 114.103 158.804 114.103 158.51V151.714C114.103 151.525 114.038 151.342 113.92 151.195L108.084 143.952C107.846 143.657 107.44 143.569 107.104 143.74Z" fill="#369434"/>
<path d="M116.919 173.752L121.556 169.113C122.218 168.45 123.273 169.27 122.82 170.095L120.868 173.657C120.778 173.822 120.634 173.95 120.461 174.019L117.777 175.096C116.963 175.423 116.295 174.376 116.919 173.752Z" fill="#369434"/>
<path d="M76.6606 122.569L81.3174 130.67C81.356 130.737 81.3849 130.809 81.4035 130.885L81.7284 132.208C81.8551 132.725 81.4718 133.225 80.9493 133.225H79.6104C79.3344 133.225 79.0778 133.08 78.9307 132.842L75.8104 127.796C75.7728 127.735 75.7432 127.669 75.7224 127.601L74.2232 122.639C74.174 122.476 74.1767 122.299 74.2296 122.137C74.3921 121.641 74.967 121.417 75.4076 121.686L76.3807 122.281C76.4963 122.351 76.5925 122.45 76.6606 122.569Z" fill="#369434"/>
<path d="M91.7926 134.214L84.1865 133.633C83.6497 133.633 83.3131 134.224 83.5795 134.699L83.6255 134.781C83.7273 134.962 83.8975 135.093 84.0966 135.144L86.1251 135.66C86.1711 135.672 86.218 135.681 86.2652 135.686L89.9138 136.077C89.9771 136.084 90.0409 136.083 90.104 136.074L91.8386 135.839C92.4032 135.762 92.7116 135.127 92.429 134.624C92.2968 134.388 92.0584 134.235 91.7926 134.214Z" fill="#369434"/>
<path d="M90.275 127.626L86.6192 126.78C86.3541 126.719 86.1376 126.525 86.0436 126.265L84.9664 123.288C84.8581 122.989 84.9306 122.653 85.1521 122.427L88.1299 119.395C88.3024 119.219 88.544 119.133 88.7864 119.16L92.1737 119.543C92.8056 119.615 93.0528 120.417 92.5743 120.844C92.3573 121.037 92.2722 121.342 92.357 121.623L92.9852 123.702C93.0088 123.78 93.0207 123.861 93.0207 123.942V125.631C93.0207 125.904 92.8865 126.16 92.6631 126.311L90.8984 127.509C90.7152 127.634 90.4897 127.676 90.275 127.626Z" fill="#369434"/>
<path d="M194 162.884C194 176.647 183.058 187.804 169.561 187.804C156.063 187.804 145.121 176.647 145.121 162.884C145.121 149.121 156.063 137.964 169.561 137.964C183.058 137.964 194 149.121 194 162.884Z" fill="#F49117" fill-opacity="0.78"/>
<path fill-rule="evenodd" clip-rule="evenodd" d="M169.561 183.273C180.604 183.273 189.556 174.145 189.556 162.884C189.556 151.624 180.604 142.495 169.561 142.495C158.517 142.495 149.565 151.624 149.565 162.884C149.565 174.145 158.517 183.273 169.561 183.273ZM169.561 187.804C183.058 187.804 194 176.647 194 162.884C194 149.121 183.058 137.964 169.561 137.964C156.063 137.964 145.121 149.121 145.121 162.884C145.121 176.647 156.063 187.804 169.561 187.804Z" fill="#FFD73D"/>
<path d="M188.075 163.262C188.075 173.897 179.62 182.518 169.19 182.518C158.76 182.518 150.305 173.897 150.305 163.262C150.305 152.627 158.76 144.005 169.19 144.005C179.62 144.005 188.075 152.627 188.075 163.262Z" fill="#FFD017" fill-opacity="0.24"/>
<path fill-rule="evenodd" clip-rule="evenodd" d="M169.19 181.008C178.802 181.008 186.594 173.063 186.594 163.262C186.594 153.461 178.802 145.516 169.19 145.516C159.578 145.516 151.786 153.461 151.786 163.262C151.786 173.063 159.578 181.008 169.19 181.008ZM169.19 182.518C179.62 182.518 188.075 173.897 188.075 163.262C188.075 152.627 179.62 144.005 169.19 144.005C158.76 144.005 150.305 152.627 150.305 163.262C150.305 173.897 158.76 182.518 169.19 182.518Z" fill="#CCA200"/>
<path d="M167.332 169.88C167.18 169.666 167.064 169.426 166.984 169.161C166.912 168.895 166.858 168.644 166.822 168.409C166.786 168.165 166.764 167.955 166.757 167.778C166.757 167.601 166.757 167.494 166.757 167.457C166.757 167.221 166.746 166.941 166.724 166.617C166.71 166.285 166.67 165.945 166.605 165.599C166.54 165.245 166.446 164.898 166.323 164.559C166.207 164.212 166.044 163.903 165.835 163.63C165.632 163.357 165.379 163.139 165.075 162.977C164.779 162.808 164.421 162.723 164.001 162.723C163.943 162.723 163.882 162.726 163.817 162.734C163.759 162.741 163.701 162.745 163.643 162.745V169.636L160.649 169.703C160.692 169.445 160.728 169.142 160.757 168.796C160.794 168.442 160.823 168.069 160.844 167.678C160.866 167.28 160.884 166.867 160.898 166.44C160.913 166.012 160.924 165.591 160.931 165.178C160.938 164.766 160.942 164.367 160.942 163.984C160.949 163.593 160.953 163.243 160.953 162.933C160.953 162.697 160.949 162.35 160.942 161.893C160.942 161.436 160.935 160.923 160.92 160.356C160.913 159.78 160.902 159.179 160.888 158.553C160.88 157.918 160.87 157.314 160.855 156.738C160.841 156.156 160.823 155.629 160.801 155.157C160.786 154.677 160.772 154.309 160.757 154.05C161.155 153.969 161.582 153.91 162.038 153.873C162.493 153.829 162.916 153.796 163.307 153.774C163.762 153.744 164.214 153.73 164.663 153.73C165.386 153.7 166.066 153.763 166.702 153.918C167.339 154.065 167.896 154.32 168.373 154.681C168.858 155.035 169.241 155.496 169.523 156.064C169.812 156.624 169.964 157.295 169.979 158.077C169.863 158.63 169.679 159.142 169.425 159.614C169.317 159.814 169.187 160.02 169.035 160.234C168.89 160.44 168.717 160.636 168.514 160.82C168.319 161.005 168.095 161.174 167.841 161.329C167.588 161.477 167.306 161.594 166.995 161.683C167.458 161.867 167.834 162.085 168.124 162.336C168.413 162.579 168.641 162.856 168.807 163.165C168.973 163.468 169.093 163.796 169.165 164.15C169.245 164.496 169.299 164.865 169.328 165.256C169.364 165.639 169.393 166.038 169.415 166.451C169.436 166.856 169.476 167.269 169.534 167.689C169.592 168.007 169.664 168.309 169.751 168.597C169.83 168.847 169.928 169.102 170.044 169.36C170.167 169.611 170.315 169.817 170.489 169.979L167.332 169.88ZM167.223 158.221C167.216 157.749 167.115 157.325 166.919 156.949C166.833 156.794 166.72 156.639 166.583 156.484C166.453 156.329 166.287 156.193 166.084 156.075C165.889 155.957 165.65 155.861 165.368 155.787C165.093 155.713 164.771 155.676 164.403 155.676C164.12 155.676 163.809 155.717 163.47 155.798L163.513 160.798C163.643 160.82 163.773 160.839 163.903 160.853C164.034 160.861 164.153 160.864 164.261 160.864C164.609 160.864 164.916 160.828 165.184 160.754C165.451 160.68 165.686 160.581 165.889 160.455C166.091 160.33 166.265 160.19 166.409 160.035C166.554 159.88 166.677 159.718 166.778 159.548C167.01 159.157 167.158 158.715 167.223 158.221Z" fill="#FFD73D"/>
<path d="M170.922 174.116C171.009 173.054 171.082 172.011 171.139 170.986C171.205 169.961 171.259 168.947 171.302 167.944C171.346 166.934 171.378 165.927 171.4 164.924C171.422 163.921 171.432 162.907 171.432 161.882C171.432 160.518 171.411 159.109 171.367 157.657L173.83 157.623L173.765 158.851C174.076 158.232 174.437 157.749 174.85 157.402C175.262 157.056 175.692 156.882 176.141 156.882C176.683 156.882 177.164 157.004 177.583 157.247C178.01 157.483 178.368 157.859 178.657 158.376C178.947 158.892 179.167 159.552 179.319 160.356C179.471 161.152 179.547 162.114 179.547 163.243C179.547 164.533 179.442 165.621 179.232 166.506C179.023 167.383 178.744 168.095 178.397 168.641C178.05 169.179 177.656 169.566 177.215 169.802C176.781 170.038 176.336 170.156 175.88 170.156C175.642 170.134 175.396 170.075 175.143 169.979C174.926 169.898 174.683 169.769 174.416 169.592C174.155 169.408 173.895 169.15 173.635 168.818C173.649 169.695 173.671 170.577 173.7 171.462C173.729 172.346 173.772 173.25 173.83 174.172L170.922 174.116ZM173.613 166.594C173.685 166.735 173.772 166.886 173.873 167.048C173.975 167.203 174.083 167.35 174.199 167.49C174.322 167.623 174.452 167.734 174.589 167.822C174.727 167.911 174.875 167.955 175.034 167.955C175.251 167.955 175.464 167.866 175.674 167.689C175.891 167.505 176.083 167.221 176.249 166.838C176.415 166.447 176.549 165.945 176.65 165.333C176.759 164.714 176.813 163.973 176.813 163.11C176.813 162.402 176.777 161.794 176.705 161.285C176.64 160.769 176.549 160.345 176.434 160.013C176.318 159.673 176.18 159.426 176.021 159.272C175.862 159.109 175.696 159.028 175.522 159.028C175.378 159.028 175.237 159.083 175.099 159.194C174.962 159.297 174.828 159.434 174.698 159.603C174.575 159.766 174.459 159.954 174.351 160.168C174.242 160.374 174.141 160.581 174.047 160.787C173.96 160.986 173.884 161.174 173.819 161.351C173.754 161.528 173.707 161.668 173.678 161.771C173.656 162.561 173.638 163.335 173.624 164.094C173.617 164.854 173.613 165.621 173.613 166.395V166.594Z" fill="#FFD73D"/>
<mask id="path-10-inside-1" fill="white">
<path d="M193.79 158.478L157.797 184.758C156.006 183.731 154.354 182.481 152.879 181.045L191.931 152.531C192.782 154.4 193.413 156.393 193.79 158.478Z"/>
<path d="M188.856 147.473C189.375 148.135 189.862 148.824 190.313 149.539L150.619 178.522C150.101 177.858 149.616 177.168 149.166 176.452L188.856 147.473Z"/>
<path d="M184.636 143.25C185.762 144.133 186.811 145.113 187.77 146.179L148.313 174.988C147.635 173.727 147.061 172.401 146.602 171.02L184.636 143.25Z"/>
</mask>
<path d="M157.797 184.758L154.813 189.963L158.19 191.899L161.335 189.604L157.797 184.758ZM193.79 158.478L197.328 163.324L200.362 161.108L199.694 157.412L193.79 158.478ZM152.879 181.045L149.341 176.199L143.604 180.388L148.693 185.343L152.879 181.045ZM191.931 152.531L197.391 150.043L194.338 143.345L188.393 147.686L191.931 152.531ZM188.856 147.473L193.578 143.771L190.001 139.208L185.318 142.627L188.856 147.473ZM190.313 149.539L193.851 154.385L198.383 151.076L195.385 146.333L190.313 149.539ZM150.619 178.522L145.888 182.212L149.463 186.794L154.157 183.367L150.619 178.522ZM149.166 176.452L145.628 171.606L141.107 174.907L144.087 179.646L149.166 176.452ZM184.636 143.25L188.337 138.528L184.764 135.728L181.098 138.405L184.636 143.25ZM187.77 146.179L191.308 151.025L196.675 147.107L192.23 142.166L187.77 146.179ZM148.313 174.988L143.029 177.83L146.291 183.893L151.851 179.833L148.313 174.988ZM146.602 171.02L143.064 166.174L139.528 168.756L140.908 172.912L146.602 171.02ZM161.335 189.604L197.328 163.324L190.252 153.632L154.259 179.912L161.335 189.604ZM160.78 179.552C159.432 178.779 158.183 177.835 157.065 176.746L148.693 185.343C150.525 187.127 152.579 188.683 154.813 189.963L160.78 179.552ZM188.393 147.686L149.341 176.199L156.417 185.89L195.469 157.377L188.393 147.686ZM186.471 155.019C187.118 156.439 187.598 157.956 187.885 159.544L199.694 157.412C199.228 154.831 198.446 152.36 197.391 150.043L186.471 155.019ZM184.134 151.174C184.528 151.677 184.898 152.201 185.241 152.745L195.385 146.333C194.825 145.447 194.222 144.592 193.578 143.771L184.134 151.174ZM154.157 183.367L193.851 154.385L186.775 144.693L147.08 173.676L154.157 183.367ZM155.349 174.831C154.956 174.327 154.588 173.802 154.245 173.258L144.087 179.646C144.645 180.533 145.246 181.39 145.888 182.212L155.349 174.831ZM185.318 142.627L145.628 171.606L152.704 181.298L192.394 152.319L185.318 142.627ZM180.935 147.973C181.786 148.64 182.581 149.383 183.309 150.192L192.23 142.166C191.04 140.844 189.738 139.626 188.337 138.528L180.935 147.973ZM151.851 179.833L191.308 151.025L184.232 141.333L144.775 170.142L151.851 179.833ZM153.597 172.145C153.082 171.187 152.645 170.178 152.296 169.128L140.908 172.912C141.477 174.623 142.189 176.268 143.029 177.83L153.597 172.145ZM181.098 138.405L143.064 166.174L150.14 175.866L188.174 148.096L181.098 138.405Z" fill="white" fill-opacity="0.2" mask="url(#path-10-inside-1)"/>
<path d="M60.7918 35.9917C60.7918 51.1224 48.8256 63.3884 34.0644 63.3884C19.3033 63.3884 7.33704 51.1224 7.33704 35.9917C7.33704 20.8609 19.3033 8.59497 34.0644 8.59497C48.8256 8.59497 60.7918 20.8609 60.7918 35.9917Z" fill="#FFD017" fill-opacity="0.24"/>
<path d="M69.1768 35.4545C69.1768 55.0356 53.6911 70.9091 34.5884 70.9091C15.4858 70.9091 0 55.0356 0 35.4545C0 15.8735 15.4858 0 34.5884 0C53.6911 0 69.1768 15.8735 69.1768 35.4545Z" fill="#FFB04F"/>
<path fill-rule="evenodd" clip-rule="evenodd" d="M34.0644 61.2396C47.6678 61.2396 58.6956 49.9357 58.6956 35.9917C58.6956 22.0476 47.6678 10.7437 34.0644 10.7437C20.461 10.7437 9.4333 22.0476 9.4333 35.9917C9.4333 49.9357 20.461 61.2396 34.0644 61.2396ZM34.0644 63.3884C48.8256 63.3884 60.7918 51.1224 60.7918 35.9917C60.7918 20.8609 48.8256 8.59497 34.0644 8.59497C19.3033 8.59497 7.33704 20.8609 7.33704 35.9917C7.33704 51.1224 19.3033 63.3884 34.0644 63.3884Z" fill="#CCA200"/>
<path fill-rule="evenodd" clip-rule="evenodd" d="M34.5884 64.4628C50.2179 64.4628 62.888 51.4754 62.888 35.4545C62.888 19.4337 50.2179 6.44628 34.5884 6.44628C18.959 6.44628 6.2888 19.4337 6.2888 35.4545C6.2888 51.4754 18.959 64.4628 34.5884 64.4628ZM34.5884 70.9091C53.6911 70.9091 69.1768 55.0356 69.1768 35.4545C69.1768 15.8735 53.6911 0 34.5884 0C15.4858 0 0 15.8735 0 35.4545C0 55.0356 15.4858 70.9091 34.5884 70.9091Z" fill="#FFD73D"/>
<path d="M37.6714 29.4258C37.6254 29.4888 37.5486 29.7091 37.4411 30.0868C37.3336 30.4645 37.2262 30.8816 37.1187 31.338C37.0112 31.7944 36.9114 32.2429 36.8193 32.6836C36.7425 33.1085 36.6965 33.4075 36.6811 33.5806C36.0209 33.5492 35.3377 33.5256 34.6314 33.5098C33.9252 33.4941 33.1959 33.4862 32.4436 33.4862V35.3276C33.2726 35.2961 34.0326 35.2567 34.7235 35.2095C35.4145 35.1623 35.9595 35.0915 36.3587 34.9971C36.3126 35.06 36.2359 35.2725 36.1284 35.6345C36.0209 35.9964 35.9134 36.4056 35.806 36.862C35.6985 37.3184 35.5987 37.7591 35.5066 38.184C35.4298 38.6089 35.3837 38.9158 35.3684 39.1047C34.9385 39.1047 34.5009 39.0968 34.0557 39.0811C33.6104 39.0653 33.1652 39.0417 32.7199 39.0103C32.8427 39.986 33.0193 40.8909 33.2496 41.7251C33.4799 42.5592 33.764 43.291 34.1017 43.9205C34.4549 44.55 34.8617 45.0458 35.3223 45.4077C35.7983 45.754 36.3433 45.9271 36.9575 45.9271C37.4795 45.8956 37.9478 45.7461 38.3623 45.4786C38.7155 45.2582 39.0532 44.9041 39.3757 44.4163C39.6981 43.9284 39.8823 43.2359 39.9284 42.3388C39.6981 42.4333 39.4678 42.4805 39.2375 42.4805C38.9304 42.4805 38.631 42.4175 38.3393 42.2916C38.0629 42.15 37.8173 41.9611 37.6023 41.7251C37.3874 41.489 37.2108 41.2136 37.0726 40.8988C36.9345 40.5683 36.8654 40.2142 36.8654 39.8365C36.8654 39.2385 36.9959 38.7427 37.2569 38.3493C37.5179 37.9558 37.8173 37.6489 38.1551 37.4286C38.5082 37.1925 38.846 37.0273 39.1684 36.9328C39.5062 36.8384 39.7442 36.7912 39.8823 36.7912C40.0205 36.7912 40.2815 36.8384 40.6654 36.9328C41.0492 37.0115 41.4407 37.224 41.8399 37.5702C42.2544 37.9165 42.6153 38.4358 42.9223 39.1283C43.2294 39.805 43.3829 40.7336 43.3829 41.9139C43.3829 43.0943 43.168 44.1251 42.7381 45.0064C42.3235 45.872 41.7938 46.596 41.149 47.1783C40.5041 47.7448 39.7902 48.1698 39.0072 48.453C38.2242 48.7363 37.4642 48.878 36.7272 48.878C35.7292 48.878 34.7466 48.6891 33.7793 48.3114C32.8274 47.9337 31.9369 47.3435 31.1078 46.5409C30.2941 45.7225 29.5724 44.6838 28.9429 43.4248C28.3288 42.1657 27.8605 40.6627 27.5381 38.9158H22.8169C22.9858 38.3807 23.17 37.7748 23.3696 37.0981C23.5692 36.4214 23.7151 35.721 23.8072 34.9971C24.2832 35.0758 24.8052 35.1387 25.3733 35.1859C25.9413 35.2174 26.5324 35.2489 27.1466 35.2803V33.3918H24.1757C24.3446 32.8567 24.5211 32.2508 24.7054 31.574C24.8896 30.8973 25.0278 30.1812 25.1199 29.4258C25.4577 29.5045 25.8262 29.5675 26.2254 29.6147C26.6246 29.6619 27.0468 29.7012 27.492 29.7327C27.7838 27.9543 28.2444 26.4513 28.8739 25.2238C29.5034 23.9805 30.2326 22.9732 31.0617 22.2021C31.8908 21.4152 32.7737 20.8486 33.7102 20.5024C34.6621 20.1404 35.6064 19.9594 36.5429 19.9594C37.633 19.9594 38.5773 20.1168 39.3757 20.4316C40.174 20.7463 40.8266 21.1555 41.3332 21.6591C41.8553 22.147 42.2391 22.6978 42.4848 23.3116C42.7304 23.9096 42.8532 24.4998 42.8532 25.0821C42.8532 26.2467 42.5692 27.1517 42.0011 27.7969C41.4484 28.4422 40.7575 28.7648 39.9284 28.7648C39.5906 28.7648 39.2452 28.7019 38.892 28.576C38.5543 28.4501 38.2472 28.2691 37.9708 28.033C37.6945 27.7969 37.4718 27.5058 37.3029 27.1595C37.1341 26.8133 37.0496 26.412 37.0496 25.9556C37.0496 25.7195 37.0803 25.4598 37.1417 25.1766C37.1878 24.9405 37.2569 24.6808 37.349 24.3975C37.4565 24.0985 37.61 23.8074 37.8096 23.5241C37.6254 23.3509 37.4334 23.2172 37.2338 23.1227C37.0343 23.0126 36.85 22.9339 36.6811 22.8867C36.4815 22.8237 36.2896 22.7844 36.1054 22.7686C35.568 22.7686 35.0997 22.9575 34.7005 23.3352C34.3013 23.6972 33.9635 24.2008 33.6872 24.8461C33.4108 25.4756 33.1882 26.2231 33.0193 27.0887C32.8504 27.9386 32.7199 28.8514 32.6278 29.8271C33.6872 29.8271 34.6698 29.8035 35.5757 29.7563C36.4815 29.6934 37.1801 29.5832 37.6714 29.4258Z" fill="#FFD73D"/>
<path d="M64.5905 25.2683C64.8484 26.0704 65.0766 26.8865 65.2739 27.7152L17.5186 62.7671C16.8235 62.3075 16.1469 61.8205 15.4902 61.3075L64.5905 25.2683Z" stroke="white" stroke-opacity="0.2" stroke-width="6"/>
<path d="M23.9976 74.7628L43.4854 110.424L31.9661 110.299C37.2413 148.758 70.1398 178.381 109.937 178.381C122.004 178.381 133.437 175.657 143.658 170.79L134.438 183.322L151.888 185.216C139.235 191.481 124.995 195 109.937 195C61.0249 195 20.7407 157.869 15.4593 110.118L3.75964 109.99L23.9976 74.7628Z" fill="#FFBC3B"/>
<path fill-rule="evenodd" clip-rule="evenodd" d="M23.7223 75.2421L23.9976 74.7629L43.4853 110.424L31.9661 110.299C37.2413 148.758 70.1398 178.381 109.937 178.381C122.004 178.381 133.437 175.657 143.658 170.79L134.872 182.733C126.668 185.305 117.95 186.691 108.915 186.691C60.364 186.691 21.0059 146.697 21.0059 97.3633C21.0059 89.728 21.9486 82.3163 23.7223 75.2421Z" fill="white" fill-opacity="0.19"/>
</svg>
