<svg width="238" height="335" viewBox="0 0 238 335" fill="none" xmlns="http://www.w3.org/2000/svg">
<ellipse cx="96.8513" cy="282" rx="87.5119" ry="18.5145" fill="black" fill-opacity="0.2"/>
<path d="M162.3 263.199C159.12 278.898 123.383 284.908 82.4786 276.624C41.574 268.339 10.9917 248.897 14.1711 233.199C17.3505 217.5 53.0877 211.49 93.9924 219.774C134.897 228.059 165.479 247.501 162.3 263.199Z" fill="url(#paint0_linear)"/>
<path d="M139.886 278.27C152.475 275.599 160.836 270.425 162.3 263.199L159.624 276.411L159.616 276.413C155.911 291.811 120.437 297.648 79.8838 289.435C39.3308 281.222 8.92335 262.042 11.5017 246.415L11.4952 246.41L14.1709 233.199C12.7074 240.425 18.3972 248.444 28.9543 255.803C29.8649 256.438 30.8116 257.067 31.7931 257.691C34.7333 259.561 37.9853 261.377 41.5097 263.117C42.0368 263.377 42.5701 263.635 43.1093 263.892C54.1209 269.132 67.6185 273.614 82.4784 276.624C104.555 281.095 125.126 281.402 139.886 278.27Z" fill="url(#paint1_linear)"/>
<g filter="url(#filter0_f)">
<ellipse cx="94.1974" cy="258.451" rx="27.0281" ry="5.84052" transform="rotate(11.4493 94.1974 258.451)" fill="black" fill-opacity="0.33"/>
</g>
<path d="M64.6754 53.7971C65.1232 51.586 67.2786 50.1566 69.4897 50.6044L70.2904 50.7666C72.5015 51.2144 73.9309 53.3698 73.4831 55.5809L36.1849 239.741C35.7371 241.952 33.5817 243.382 31.3706 242.934L30.5699 242.772C28.3589 242.324 26.9295 240.168 27.3773 237.957L64.6754 53.7971Z" fill="#F3B87E"/>
<path d="M177.574 76.6624C178.021 74.4514 180.177 73.022 182.388 73.4698L183.189 73.632C185.4 74.0798 186.829 76.2352 186.381 78.4463L149.083 262.606C148.635 264.817 146.48 266.247 144.269 265.799L143.468 265.637C141.257 265.189 139.828 263.034 140.275 260.823L177.574 76.6624Z" fill="#F3B87E"/>
<path d="M126.39 41.29C126.838 39.0789 128.993 37.6495 131.204 38.0973L132.005 38.2595C134.216 38.7073 135.645 40.8627 135.197 43.0738L97.8994 227.234C97.4515 229.445 95.2961 230.874 93.085 230.427L92.2843 230.264C90.0733 229.817 88.6439 227.661 89.0917 225.45L126.39 41.29Z" fill="#F3B87E"/>
<g filter="url(#filter1_f)">
<path d="M61.5571 77.4249C61.9247 75.6099 62.8744 74.2707 63.6785 74.4335L63.9696 74.4925C64.7737 74.6553 65.1275 76.2586 64.7599 78.0735L34.1443 229.238C33.7768 231.053 32.827 232.393 32.023 232.23L31.7318 232.171C30.9278 232.008 30.574 230.405 30.9416 228.59L61.5571 77.4249Z" fill="url(#paint2_linear)"/>
</g>
<g filter="url(#filter2_f)">
<path d="M174.455 100.29C174.823 98.4754 175.773 97.1362 176.577 97.299L176.868 97.358C177.672 97.5208 178.026 99.1241 177.658 100.939L147.043 252.104C146.675 253.919 145.725 255.258 144.921 255.095L144.63 255.036C143.826 254.873 143.472 253.27 143.84 251.455L174.455 100.29Z" fill="url(#paint3_linear)"/>
</g>
<path d="M95.9851 154.328C85.1779 141 69.2479 118.309 68.775 99.8617C68.6503 94.9973 69.5246 87.4731 69.5246 87.4731C74.784 61.505 101.453 44.9915 129.091 50.5891C156.729 56.1867 174.871 81.7757 169.612 107.744C169.612 107.744 167.489 115.015 165.482 119.448C157.868 136.258 134.364 150.962 119.223 159.035C130.03 172.362 145.96 195.053 146.433 213.501C146.558 218.365 145.683 225.89 145.683 225.89C140.424 251.858 113.755 268.371 86.1171 262.774C58.4788 257.176 40.3371 231.587 45.5964 205.619C45.5964 205.619 47.7187 198.347 49.7263 193.915C57.3399 177.105 80.8437 162.401 95.9851 154.328Z" fill="#C4C4C4" fill-opacity="0.47"/>
<path d="M98.9524 153.32C99.7151 154.329 101.128 156.203 101.128 156.203C101.128 156.203 99.0969 157.381 98.002 158.013C83.9819 166.105 61.8795 178.862 55.3749 193.86C53.5258 198.124 51.5356 205.103 51.5356 205.103C46.4946 229.993 62.3039 254.2 86.8467 259.171C111.389 264.141 135.372 247.993 140.413 223.103C140.413 223.103 141.295 215.9 141.251 211.253C141.094 194.905 125.698 174.553 115.931 161.644C115.168 160.636 114.44 159.673 113.756 158.761C114.741 158.187 115.786 157.584 116.881 156.952C130.901 148.859 153.004 136.102 159.509 121.104C161.358 116.84 163.348 109.861 163.348 109.861C168.389 84.9713 152.58 60.7643 128.037 55.7937C103.494 50.823 79.5116 66.9709 74.4706 91.8611C74.4706 91.8611 73.5886 99.0641 73.6329 103.711C73.789 120.059 89.1858 140.411 98.9524 153.32Z" fill="#A5A5A5" fill-opacity="0.47"/>
<g filter="url(#filter3_f)">
<path d="M72.3723 78.405C81.3125 57.8014 104.828 45.6753 129.091 50.5892C155.644 55.967 173.431 79.7969 170.124 104.688C157.823 107.967 141.214 108.21 123.563 104.635C99.9901 99.8612 80.7787 89.5375 72.3723 78.405Z" fill="black" fill-opacity="0.19"/>
<path d="M69.7197 74.1628C67.9965 70.6837 67.3821 67.1846 68.0666 63.805C68.7465 60.4482 70.6528 57.4812 73.5607 54.9578C73.5509 55.1641 73.5254 55.3723 73.4831 55.581L69.7197 74.1628Z" fill="black" fill-opacity="0.19"/>
<path d="M114.025 102.342L125.398 46.1877C128.315 46.5597 131.279 47.0379 134.276 47.6262L122.763 104.471C119.774 103.847 116.857 103.134 114.025 102.342Z" fill="black" fill-opacity="0.19"/>
<path d="M182.079 99.6897C179.277 101.48 175.881 102.976 172.006 104.152L177.574 76.6625C178.021 74.4514 180.177 73.022 182.388 73.4698L183.189 73.632C185.4 74.0798 186.829 76.2353 186.381 78.4463L182.079 99.6897Z" fill="black" fill-opacity="0.19"/>
</g>
<path d="M203.652 59.0217C200.473 74.7202 164.736 80.7305 123.831 72.4461C82.9263 64.1616 52.344 44.7196 55.5234 29.021C58.7028 13.3225 94.44 7.31219 135.345 15.5966C176.249 23.8811 206.832 43.3232 203.652 59.0217Z" fill="url(#paint4_linear)"/>
<path d="M181.238 74.0924C193.827 71.421 202.188 66.2477 203.652 59.0217L200.976 72.2331L200.968 72.2355C197.263 87.6336 161.789 93.4704 121.236 85.2572C80.6829 77.044 50.2755 57.8641 52.8539 42.2378L52.8473 42.2325L55.5231 29.021C54.0596 36.247 59.7494 44.2662 70.3065 51.6253C71.217 52.26 72.1638 52.8898 73.1453 53.5138C76.0855 55.383 79.3375 57.1997 82.8618 58.939C83.389 59.1991 83.9223 59.4576 84.4615 59.7142C95.4731 64.9544 108.971 69.4365 123.831 72.4461C145.907 76.9172 166.478 77.2246 181.238 74.0924Z" fill="url(#paint5_linear)"/>
<path d="M77.3704 44.2256C75.571 44.166 73.6329 43.9416 71.6356 43.5371C69.4106 43.0864 67.3403 42.4585 65.5177 41.7155C65.5328 41.4376 65.5683 41.1576 65.6251 40.8771C66.2761 37.6625 69.4925 35.6012 72.8091 36.2729C76.1257 36.9446 78.2865 40.095 77.6355 43.3096C77.5713 43.6266 77.4821 43.9325 77.3704 44.2256Z" fill="#F3B87E"/>
<path d="M190.269 67.0909C188.469 67.0314 186.531 66.807 184.534 66.4024C182.309 65.9518 180.238 65.3239 178.416 64.5809C178.431 64.303 178.466 64.0229 178.523 63.7425C179.174 60.5279 182.391 58.4665 185.707 59.1383C189.024 59.81 191.185 62.9604 190.534 66.1749C190.469 66.492 190.38 66.7978 190.269 67.0909Z" fill="#F3B87E"/>
<path d="M140.058 26.9142C138.258 26.8547 136.32 26.6303 134.323 26.2258C132.098 25.7751 130.028 25.1472 128.205 24.4042C128.22 24.1263 128.256 23.8463 128.312 23.5658C128.964 20.3512 132.18 18.2899 135.497 18.9616C138.813 19.6333 140.974 22.7837 140.323 25.9983C140.259 26.3153 140.17 26.6212 140.058 26.9142Z" fill="#F3B87E"/>
<path d="M101.038 156.084C100.714 155.655 99.5996 154.176 98.9524 153.32L98.9519 153.32C91.0872 142.749 83.7806 133.266 78.4144 121.666C88.519 121.607 100.833 122.852 113.919 125.503C127.004 128.153 138.832 131.797 148.118 135.783C138.661 144.381 126.045 151.662 116.882 156.951L116.881 156.952L116.869 156.959C115.826 157.561 114.828 158.137 113.885 158.686L113.818 158.674C113.701 158.934 111.335 164.12 106.847 170.754C102.858 176.651 102.954 183.894 103.043 190.598C103.091 194.23 102.207 199.447 102.531 200.719C102.855 201.99 103.436 203.413 103.436 203.413C117.002 206.536 129.646 211.102 141.026 216.769C140.777 220.128 140.413 223.103 140.413 223.103C135.372 247.993 111.39 264.141 86.8468 259.171C62.3039 254.2 46.4947 229.993 51.5357 205.103C51.5357 205.103 52.3203 202.351 53.362 199.248C67.7498 198.269 83.1022 199.231 98.7609 202.402C98.9069 202.432 99.0529 202.462 99.1988 202.491C99.3701 202.527 99.5412 202.562 99.7122 202.597C99.7122 202.597 99.8989 201.676 100.919 201.231C101.938 200.787 101.065 185.293 100.962 181.386C100.787 174.711 100.761 173.734 103.41 167.154C105.437 162.118 101.279 156.381 101.064 156.09L101.038 156.084Z" fill="#816649"/>
<path d="M148.088 135.779C140.901 138.274 131.174 137.632 112.315 133.813C93.4568 129.994 84.963 127.256 78.4277 121.675C84.1722 121.625 96.4088 121.956 113.995 125.518C132.24 129.384 142.631 133.392 148.088 135.779Z" fill="white" fill-opacity="0.14"/>
<path d="M123.203 131.377C121.089 132.277 118.265 132.152 112.813 131.047C107.361 129.943 104.915 129.106 103.064 127.3C104.736 127.231 108.293 127.23 113.378 128.259C118.651 129.385 121.637 130.629 123.203 131.377Z" fill="#816649" fill-opacity="0.8"/>
<path d="M53.3547 199.247C69.4267 208.539 82.5103 211.903 96.0864 214.652C109.662 217.402 121.111 219.491 141.053 216.781C140.91 218.184 140.413 223.103 140.413 223.103C135.372 247.993 111.39 264.141 86.8468 259.171C62.3039 254.2 46.4947 229.993 51.5357 205.103C51.5357 205.103 52.9864 200.454 53.3547 199.247Z" fill="url(#paint6_linear)" fill-opacity="0.08"/>
<path d="M90.0425 82.9447C90.7978 80.9155 90.4589 79.2122 86.1181 79.2281C80.0151 79.2505 77.0764 89.7834 76.3056 96.6032C75.2941 105.552 77.4541 110.21 80.4444 118.599C83.4127 126.927 94.221 137.792 94.221 137.792C94.221 137.792 84.5944 126.222 85.9149 103.325C86.3912 95.0665 88.3748 87.426 90.0425 82.9447Z" fill="white" fill-opacity="0.49"/>
<path d="M110.139 244.112C108.47 245.492 107.912 247.136 111.679 249.293C116.976 252.325 124.787 244.673 128.865 239.152C134.215 231.908 134.674 226.794 136.279 218.033C137.872 209.337 133.944 194.524 133.944 194.524C133.944 194.524 136.496 209.357 123.904 228.526C119.362 235.44 113.824 241.065 110.139 244.112Z" fill="white" fill-opacity="0.29"/>
<path d="M127.929 143.725C128.268 143.322 128.66 143.176 129.138 144.035C129.81 145.244 127.944 147.141 126.61 148.147C124.86 149.465 123.651 149.621 121.573 150.08C119.51 150.535 115.928 151.777 115.928 151.777C115.928 151.777 119.526 150.213 124.145 147.089C125.811 145.962 127.181 144.615 127.929 143.725Z" fill="white" fill-opacity="0.25"/>
<defs>
<filter id="filter0_f" x="62.5477" y="243.362" width="63.2992" height="30.1788" filterUnits="userSpaceOnUse" color-interpolation-filters="sRGB">
<feFlood flood-opacity="0" result="BackgroundImageFix"/>
<feBlend mode="normal" in="SourceGraphic" in2="BackgroundImageFix" result="shape"/>
<feGaussianBlur stdDeviation="2" result="effect1_foregroundBlur"/>
</filter>
<filter id="filter1_f" x="26.276" y="70.1387" width="43.1494" height="166.386" filterUnits="userSpaceOnUse" color-interpolation-filters="sRGB">
<feFlood flood-opacity="0" result="BackgroundImageFix"/>
<feBlend mode="normal" in="SourceGraphic" in2="BackgroundImageFix" result="shape"/>
<feGaussianBlur stdDeviation="2" result="effect1_foregroundBlur"/>
</filter>
<filter id="filter2_f" x="139.174" y="93.0042" width="43.1494" height="166.386" filterUnits="userSpaceOnUse" color-interpolation-filters="sRGB">
<feFlood flood-opacity="0" result="BackgroundImageFix"/>
<feBlend mode="normal" in="SourceGraphic" in2="BackgroundImageFix" result="shape"/>
<feGaussianBlur stdDeviation="2" result="effect1_foregroundBlur"/>
</filter>
<filter id="filter3_f" x="60.3097" y="33.3827" width="132.015" height="84.4422" filterUnits="userSpaceOnUse" color-interpolation-filters="sRGB">
<feFlood flood-opacity="0" result="BackgroundImageFix"/>
<feBlend mode="normal" in="SourceGraphic" in2="BackgroundImageFix" result="shape"/>
<feGaussianBlur stdDeviation="1" result="effect1_foregroundBlur"/>
</filter>
<linearGradient id="paint0_linear" x1="150.538" y1="290.408" x2="10.0916" y2="263.63" gradientUnits="userSpaceOnUse">
<stop offset="0.40884" stop-color="#D99E64"/>
<stop offset="0.80663" stop-color="#E0B78F"/>
</linearGradient>
<linearGradient id="paint1_linear" x1="151.237" y1="299.302" x2="14.7182" y2="271.652" gradientUnits="userSpaceOnUse">
<stop stop-color="#AD6F32"/>
<stop offset="0.502762" stop-color="#B07235"/>
<stop offset="1" stop-color="#F6C797"/>
</linearGradient>
<linearGradient id="paint2_linear" x1="63.824" y1="74.463" x2="31.8774" y2="232.2" gradientUnits="userSpaceOnUse">
<stop stop-color="#FFE2C5" stop-opacity="0"/>
<stop offset="0.220994" stop-color="#FFE2C5"/>
</linearGradient>
<linearGradient id="paint3_linear" x1="176.722" y1="97.3285" x2="144.776" y2="255.066" gradientUnits="userSpaceOnUse">
<stop stop-color="#FFCE9E" stop-opacity="0.43"/>
<stop offset="1" stop-color="#F3F3F3"/>
</linearGradient>
<linearGradient id="paint4_linear" x1="191.89" y1="86.2302" x2="51.4439" y2="59.4526" gradientUnits="userSpaceOnUse">
<stop offset="0.40884" stop-color="#D99E64"/>
<stop offset="0.80663" stop-color="#E0B78F"/>
</linearGradient>
<linearGradient id="paint5_linear" x1="192.589" y1="95.124" x2="56.0704" y2="67.4747" gradientUnits="userSpaceOnUse">
<stop stop-color="#AD6F32"/>
<stop offset="0.502762" stop-color="#B07235"/>
<stop offset="1" stop-color="#F6C797"/>
</linearGradient>
<linearGradient id="paint6_linear" x1="122.15" y1="233.263" x2="58.4769" y2="221.012" gradientUnits="userSpaceOnUse">
<stop/>
<stop offset="1" stop-opacity="0"/>
</linearGradient>
</defs>
</svg>
