<svg width="206" height="209" viewBox="0 0 206 209" fill="none" xmlns="http://www.w3.org/2000/svg">
<rect x="104.099" y="62.0617" width="13.7343" height="2.19749" rx="1.09875" transform="rotate(-90 104.099 62.0617)" fill="#FFCA00"/>
<rect x="0.26709" y="33.4943" width="6.59248" height="2.19749" rx="1.09875" transform="rotate(-90 0.26709 33.4943)" fill="#FFCA00"/>
<rect x="0.26709" y="54.9199" width="13.7343" height="2.19749" rx="1.09875" transform="rotate(-90 0.26709 54.9199)" fill="#FFCA00"/>
<rect x="0.26709" y="69.2036" width="13.7343" height="2.19749" rx="1.09875" transform="rotate(-90 0.26709 69.2036)" fill="#FFCA00"/>
<path d="M1.36572 11.5193C1.36572 5.4511 6.28498 0.53186 12.3532 0.53186H94.2098C100.278 0.53186 105.197 5.45112 105.197 11.5193V191.813C105.197 197.882 100.278 202.801 94.2098 202.801H12.3532C6.28498 202.801 1.36572 197.882 1.36572 191.813V11.5193Z" fill="#FFD73D"/>
<path d="M2.46448 12.5839C2.46448 6.5157 7.38374 1.59644 13.4519 1.59644H93.1111C99.1793 1.59644 104.099 6.51569 104.099 12.5839V190.749C104.099 196.817 99.1793 201.736 93.1111 201.736H13.4519C7.38374 201.736 2.46448 196.817 2.46448 190.749V12.5839Z" fill="white"/>
<rect x="5.86548" y="26.9018" width="95.3814" height="149.979" fill="#6B6B6B"/>
<circle cx="56.3031" cy="189.976" r="9.33935" fill="#FFD73D"/>
<circle cx="56.3031" cy="189.976" r="8.2406" fill="#FFFDFD"/>
<path d="M101.247 146.396V176.881H5.86548V41.8736L6.01786 41.7349L101.247 146.396Z" fill="#333232"/>
<circle cx="53.2815" cy="7.60177" r="1.73366" fill="#333232"/>
<circle cx="34.8951" cy="15.2195" r="2.38443" fill="#333232"/>
<rect x="42.615" y="14.317" width="21.3336" height="1.80499" rx="0.902495" fill="#333232"/>
<rect x="46.9637" y="49.4261" width="158.769" height="106.029" rx="10" fill="#F5F5F5"/>
<path d="M141.181 160.397C141.181 158.6 138.994 157.715 137.744 159.006L116.463 180.994C115.7 181.782 115.714 183.037 116.494 183.808L137.776 204.831C139.039 206.079 141.181 205.184 141.181 203.408V195.059C141.181 193.954 142.077 193.059 143.181 193.059H168.023C169.128 193.059 170.023 192.163 170.023 191.059V172.828C170.023 171.723 169.128 170.828 168.023 170.828H143.181C142.077 170.828 141.181 169.932 141.181 168.828V160.397Z" fill="#7A9ED4"/>
<path d="M137.776 204.831L137.424 205.186L137.776 204.831ZM116.463 180.994L116.104 180.646L116.463 180.994ZM116.822 181.342L138.103 159.354L137.385 158.659L116.104 180.646L116.822 181.342ZM140.681 160.397V168.828H141.681V160.397H140.681ZM143.181 171.328H168.023V170.328H143.181V171.328ZM169.523 172.828V191.059H170.523V172.828H169.523ZM168.023 192.559H143.181V193.559H168.023V192.559ZM140.681 195.059V203.408H141.681V195.059H140.681ZM138.127 204.475L116.846 183.452L116.143 184.163L137.424 205.186L138.127 204.475ZM140.681 203.408C140.681 204.74 139.075 205.411 138.127 204.475L137.424 205.186C139.004 206.747 141.681 205.628 141.681 203.408H140.681ZM143.181 192.559C141.801 192.559 140.681 193.678 140.681 195.059H141.681C141.681 194.23 142.353 193.559 143.181 193.559V192.559ZM169.523 191.059C169.523 191.887 168.852 192.559 168.023 192.559V193.559C169.404 193.559 170.523 192.44 170.523 191.059H169.523ZM168.023 171.328C168.852 171.328 169.523 171.999 169.523 172.828H170.523C170.523 171.447 169.404 170.328 168.023 170.328V171.328ZM140.681 168.828C140.681 170.208 141.801 171.328 143.181 171.328V170.328C142.353 170.328 141.681 169.656 141.681 168.828H140.681ZM138.103 159.354C139.041 158.385 140.681 159.049 140.681 160.397H141.681C141.681 158.15 138.948 157.044 137.385 158.659L138.103 159.354ZM116.104 180.646C115.15 181.631 115.168 183.2 116.143 184.163L116.846 183.452C116.261 182.874 116.25 181.933 116.822 181.342L116.104 180.646Z" fill="#7A9ED4"/>
<ellipse cx="157.388" cy="101.891" rx="26.9193" ry="30.4902" fill="#369434"/>
<path d="M189.252 55.4692H58.5008C55.4667 55.4692 53.0071 57.9289 53.0071 60.963V145.566C53.0071 148.601 55.4667 151.06 58.5008 151.06H189.252V55.4692Z" fill="#369434"/>
<path d="M189.252 62.0617H82.1031C82.1206 62.4813 82.1252 62.9039 82.1166 63.3291C81.8815 74.9929 71.8211 84.2623 59.5995 84.1273V122.938C59.8117 122.937 60.0246 122.938 60.2382 122.942C72.3056 123.186 81.9509 132.51 82.1186 143.918H189.252V62.0617Z" fill="#68C568"/>
<path d="M189.252 70.8517H135.962C132.928 70.8517 130.469 73.3113 130.469 76.3454V127.987C130.469 131.021 132.928 133.48 135.962 133.48H189.252V70.8517Z" fill="#369434"/>
<path d="M169.61 96.9383C169.545 97.0181 169.436 97.2973 169.284 97.7759C169.132 98.2545 168.98 98.7829 168.827 99.3612C168.675 99.9395 168.534 100.508 168.404 101.066C168.295 101.605 168.23 101.984 168.208 102.203C167.273 102.163 166.306 102.133 165.306 102.113C164.306 102.093 163.274 102.083 162.208 102.083V104.416C163.382 104.376 164.458 104.327 165.436 104.267C166.415 104.207 167.186 104.117 167.751 103.998C167.686 104.077 167.578 104.347 167.425 104.805C167.273 105.264 167.121 105.782 166.969 106.361C166.817 106.939 166.675 107.497 166.545 108.036C166.436 108.574 166.371 108.963 166.349 109.202C165.741 109.202 165.121 109.192 164.491 109.172C163.86 109.152 163.23 109.123 162.6 109.083C162.774 110.319 163.024 111.466 163.35 112.523C163.676 113.579 164.078 114.507 164.556 115.304C165.056 116.102 165.632 116.73 166.284 117.189C166.958 117.628 167.73 117.847 168.599 117.847C169.338 117.807 170.001 117.618 170.588 117.279C171.088 116.999 171.566 116.551 172.023 115.933C172.479 115.314 172.74 114.437 172.805 113.3C172.479 113.42 172.153 113.48 171.827 113.48C171.392 113.48 170.968 113.4 170.555 113.24C170.164 113.061 169.816 112.822 169.512 112.523C169.208 112.223 168.958 111.874 168.762 111.476C168.567 111.057 168.469 110.608 168.469 110.13C168.469 109.372 168.653 108.744 169.023 108.245C169.393 107.747 169.816 107.358 170.295 107.079C170.795 106.779 171.273 106.57 171.729 106.45C172.208 106.331 172.544 106.271 172.74 106.271C172.936 106.271 173.305 106.331 173.849 106.45C174.392 106.55 174.946 106.819 175.512 107.258C176.098 107.697 176.609 108.355 177.044 109.232C177.479 110.09 177.696 111.266 177.696 112.762C177.696 114.257 177.392 115.564 176.783 116.68C176.196 117.777 175.446 118.694 174.533 119.432C173.62 120.15 172.61 120.689 171.501 121.048C170.392 121.406 169.316 121.586 168.273 121.586C166.86 121.586 165.469 121.347 164.1 120.868C162.752 120.389 161.491 119.642 160.317 118.625C159.165 117.588 158.144 116.272 157.252 114.676C156.383 113.081 155.72 111.177 155.263 108.963H148.579C148.818 108.285 149.079 107.517 149.362 106.66C149.644 105.802 149.851 104.915 149.981 103.998C150.655 104.097 151.394 104.177 152.199 104.237C153.003 104.277 153.84 104.317 154.709 104.357V101.964H150.503C150.742 101.286 150.992 100.518 151.253 99.6603C151.514 98.8029 151.709 97.8955 151.84 96.9383C152.318 97.038 152.84 97.1178 153.405 97.1776C153.97 97.2374 154.568 97.2873 155.198 97.3272C155.611 95.0738 156.263 93.1694 157.155 91.614C158.046 90.0386 159.078 88.7623 160.252 87.7852C161.426 86.7881 162.676 86.0702 164.002 85.6315C165.349 85.1729 166.686 84.9435 168.012 84.9435C169.556 84.9435 170.892 85.143 172.023 85.5418C173.153 85.9406 174.077 86.4591 174.794 87.0972C175.533 87.7154 176.077 88.4134 176.424 89.1911C176.772 89.9488 176.946 90.6967 176.946 91.4345C176.946 92.9102 176.544 94.0568 175.74 94.8744C174.957 95.692 173.979 96.1008 172.805 96.1008C172.327 96.1008 171.838 96.021 171.338 95.8615C170.86 95.702 170.425 95.4726 170.034 95.1735C169.643 94.8744 169.327 94.5055 169.088 94.0668C168.849 93.628 168.73 93.1195 168.73 92.5412C168.73 92.2421 168.773 91.9131 168.86 91.5541C168.925 91.255 169.023 90.926 169.153 90.567C169.306 90.1881 169.523 89.8192 169.806 89.4603C169.545 89.2409 169.273 89.0714 168.99 88.9518C168.708 88.8122 168.447 88.7125 168.208 88.6527C167.925 88.5729 167.654 88.523 167.393 88.5031C166.632 88.5031 165.969 88.7424 165.404 89.221C164.839 89.6796 164.36 90.3178 163.969 91.1354C163.578 91.933 163.263 92.8802 163.024 93.977C162.784 95.0539 162.6 96.2105 162.469 97.4468C163.969 97.4468 165.36 97.4169 166.643 97.3571C167.925 97.2773 168.914 97.1377 169.61 96.9383Z" fill="#FFD73D"/>
<circle cx="95.0341" cy="102.99" r="10.1634" fill="#369434"/>
</svg>
