<svg width="119" height="66" viewBox="0 0 119 66" fill="none" xmlns="http://www.w3.org/2000/svg">
<path d="M5.30413 8.47322L11.8445 55.0243C11.8445 55.0243 23.3249 59.141 37.1904 55.0243C51.056 50.9077 55.9394 48.2916 64.9215 38.9821C55.5906 44.3674 49.3425 45.9584 42.715 46.5689C36.0874 47.1793 28.1518 46.5689 28.1518 46.5689C27.6285 41.3366 23.4427 38.9821 18.7336 38.9821L16.9838 25.308C22.3326 25.308 27.0181 20.9889 27.0181 16.7495C27.0181 16.7495 32.6488 16.4765 36.1714 15.9694C40.2682 15.3796 53.8789 12.5945 61.5089 8.47322C67.5059 5.23395 72.1902 0.699188 72.1902 0.699188C72.1902 0.699188 56.7052 4.81323 35.363 6.75343C14.0208 8.69363 5.30413 8.47322 5.30413 8.47322Z" fill="url(#paint0_linear)"/>
<path d="M115.506 18.5591C116.563 18.0545 117.525 17.5952 118.174 16.7156C118.137 17.84 117.254 19.1358 116.286 20.0473C115.886 20.4234 115.374 20.6795 114.681 21.0265C113.733 21.5012 112.444 22.146 110.637 23.501C111.146 22.017 111.68 21.073 112.959 20.0473C113.797 19.3755 114.681 18.9534 115.506 18.5591Z" fill="url(#paint1_linear)"/>
<path d="M115.302 21.5047C115.971 21.2493 116.566 21.0218 117.051 20.3971C116.945 21.3073 116.173 22.2292 115.423 22.8076C115.206 22.9754 114.932 23.0925 114.555 23.2539C113.949 23.5133 113.076 23.8871 111.738 24.7693C112.172 23.6386 112.777 22.9603 113.669 22.3207C114.245 21.9085 114.794 21.6986 115.302 21.5047Z" fill="url(#paint2_linear)"/>
<path d="M39.7421 22.522V42.5699H37.0838V34.9827C36.4746 35.7581 35.727 36.3488 34.8409 36.7549C33.9733 37.161 33.0133 37.3641 31.9611 37.3641C30.5397 37.3641 29.2659 37.0503 28.1398 36.4226C27.0137 35.795 26.1276 34.9181 25.4815 33.792C24.8539 32.6475 24.5401 31.3368 24.5401 29.86C24.5401 28.3832 24.8539 27.0817 25.4815 25.9556C26.1276 24.8296 27.0137 23.9527 28.1398 23.325C29.2659 22.6974 30.5397 22.3836 31.9611 22.3836C33.0503 22.3836 34.0471 22.5959 34.9517 23.0205C35.8562 23.4266 36.6039 24.0358 37.1946 24.848V22.522H39.7421ZM32.1826 35.0381C33.1056 35.0381 33.9456 34.8258 34.7025 34.4012C35.4593 33.9582 36.0501 33.349 36.4746 32.5737C36.8992 31.7799 37.1115 30.8753 37.1115 29.86C37.1115 28.8447 36.89 27.9494 36.447 27.174C36.0224 26.3987 35.4316 25.7987 34.6748 25.3741C33.9364 24.9311 33.1056 24.7096 32.1826 24.7096C31.2412 24.7096 30.392 24.9219 29.6351 25.3465C28.8967 25.771 28.306 26.3802 27.8629 27.174C27.4383 27.9494 27.226 28.8447 27.226 29.86C27.226 30.8753 27.4383 31.7799 27.8629 32.5737C28.306 33.349 28.8967 33.9582 29.6351 34.4012C30.392 34.8258 31.2412 35.0381 32.1826 35.0381Z" fill="url(#paint3_linear)"/>
<path d="M40.6183 22.522H43.2765V37.198H40.6183V22.522ZM41.9474 19.6976C41.4305 19.6976 40.9967 19.5315 40.646 19.1992C40.3137 18.8669 40.1475 18.4608 40.1475 17.9808C40.1475 17.5008 40.3137 17.0947 40.646 16.7624C40.9967 16.4117 41.4305 16.2363 41.9474 16.2363C42.4643 16.2363 42.8889 16.4024 43.2212 16.7347C43.5719 17.0485 43.7473 17.4454 43.7473 17.9254C43.7473 18.4238 43.5719 18.8484 43.2212 19.1992C42.8889 19.5315 42.4643 19.6976 41.9474 19.6976Z" fill="url(#paint4_linear)"/>
<path d="M52.0349 22.3836C53.8994 22.3836 55.3763 22.9282 56.4654 24.0173C57.573 25.088 58.1268 26.6664 58.1268 28.7524V37.198H55.4686V29.057C55.4686 27.6355 55.127 26.5648 54.444 25.8449C53.761 25.1249 52.7826 24.765 51.5088 24.765C50.0689 24.765 48.9336 25.1895 48.1029 26.0387C47.2722 26.8694 46.8568 28.0693 46.8568 29.6385V37.198H44.1985V22.522H46.7461V24.7373C47.2814 23.9804 48.0014 23.3989 48.9059 22.9928C49.8289 22.5866 50.8719 22.3836 52.0349 22.3836Z" fill="url(#paint5_linear)"/>
<path d="M67.9753 36.3396C67.5877 36.6718 67.1077 36.9303 66.5354 37.1149C65.9632 37.281 65.3724 37.3641 64.7632 37.3641C63.2864 37.3641 62.1419 36.9672 61.3296 36.1734C60.5174 35.3796 60.1113 34.2443 60.1113 32.7675V24.7096H57.6191V22.522H60.1113V19.3099H62.7695V22.522H66.9785V24.7096H62.7695V32.6567C62.7695 33.4505 62.9634 34.0597 63.351 34.4843C63.7572 34.9089 64.3294 35.1212 65.0678 35.1212C65.8801 35.1212 66.5724 34.8904 67.1446 34.4289L67.9753 36.3396Z" fill="url(#paint6_linear)"/>
<path d="M74.152 37.3641C72.6937 37.3641 71.383 37.041 70.22 36.3949C69.057 35.7488 68.1432 34.8627 67.4786 33.7367C66.8325 32.5921 66.5095 31.2999 66.5095 29.86C66.5095 28.4201 66.8325 27.1371 67.4786 26.011C68.1432 24.8665 69.057 23.9804 70.22 23.3527C71.383 22.7066 72.6937 22.3836 74.152 22.3836C75.6104 22.3836 76.9118 22.7066 78.0564 23.3527C79.2194 23.9804 80.1239 24.8665 80.7701 26.011C81.4346 27.1371 81.7669 28.4201 81.7669 29.86C81.7669 31.2999 81.4346 32.5921 80.7701 33.7367C80.1239 34.8627 79.2194 35.7488 78.0564 36.3949C76.9118 37.041 75.6104 37.3641 74.152 37.3641ZM74.152 35.0381C75.0935 35.0381 75.9335 34.8258 76.6719 34.4012C77.4287 33.9582 78.0195 33.349 78.4441 32.5737C78.8686 31.7799 79.0809 30.8753 79.0809 29.86C79.0809 28.8447 78.8686 27.9494 78.4441 27.174C78.0195 26.3802 77.4287 25.771 76.6719 25.3465C75.9335 24.9219 75.0935 24.7096 74.152 24.7096C73.2106 24.7096 72.3614 24.9219 71.6045 25.3465C70.8661 25.771 70.2754 26.3802 69.8323 27.174C69.4077 27.9494 69.1954 28.8447 69.1954 29.86C69.1954 30.8753 69.4077 31.7799 69.8323 32.5737C70.2754 33.349 70.8661 33.9582 71.6045 34.4012C72.3614 34.8258 73.2106 35.0381 74.152 35.0381Z" fill="url(#paint7_linear)"/>
<path d="M97.0455 29.9431C97.0455 30.1461 97.0271 30.4138 96.9902 30.7461H85.0833C85.2494 32.0383 85.8125 33.0813 86.7724 33.8751C87.7508 34.6504 88.9599 35.0381 90.3998 35.0381C92.1536 35.0381 93.5658 34.4474 94.6365 33.2659L96.1041 34.9827C95.4395 35.7581 94.6088 36.3488 93.6119 36.7549C92.6335 37.161 91.5351 37.3641 90.3168 37.3641C88.7661 37.3641 87.3908 37.0503 86.1909 36.4226C84.991 35.7765 84.0587 34.8812 83.3942 33.7367C82.748 32.5921 82.425 31.2999 82.425 29.86C82.425 28.4386 82.7388 27.1556 83.3665 26.011C84.0126 24.8665 84.8894 23.9804 85.9971 23.3527C87.1231 22.7066 88.3877 22.3836 89.7906 22.3836C91.1936 22.3836 92.4397 22.7066 93.5289 23.3527C94.6365 23.9804 95.4949 24.8665 96.1041 26.011C96.7317 27.1556 97.0455 28.4662 97.0455 29.9431ZM89.7906 24.6265C88.5169 24.6265 87.4462 25.0142 86.5786 25.7895C85.7294 26.5648 85.231 27.5801 85.0833 28.8354H94.498C94.3503 27.5986 93.8427 26.5925 92.975 25.8172C92.1259 25.0234 91.0644 24.6265 89.7906 24.6265Z" fill="url(#paint8_linear)"/>
<path d="M105.527 22.3836C107.392 22.3836 108.869 22.9282 109.958 24.0173C111.065 25.088 111.619 26.6664 111.619 28.7524V37.198H108.961V29.057C108.961 27.6355 108.619 26.5648 107.936 25.8449C107.253 25.1249 106.275 24.765 105.001 24.765C103.561 24.765 102.426 25.1895 101.595 26.0387C100.765 26.8694 100.349 28.0693 100.349 29.6385V37.198H97.6909V22.522H100.238V24.7373C100.774 23.9804 101.494 23.3989 102.398 22.9928C103.321 22.5866 104.364 22.3836 105.527 22.3836Z" fill="url(#paint9_linear)"/>
<path d="M3.99642 16.2759C5.43647 24.4682 9.01351 47.3853 10.7871 59.5431C10.7871 59.5431 22.0873 61.3157 32.2205 59.5431C45.8351 57.1614 59.6026 47.1452 59.6026 47.1452C53.7949 52.6715 45.4909 59.603 31.806 63.666C17.9404 67.7826 6.8746 62.827 6.8746 62.827L0.334229 16.2759C0.334229 16.2759 0.89862 16.3607 3.99642 16.2759Z" fill="url(#paint10_linear)"/>
<defs>
<linearGradient id="paint0_linear" x1="13.054" y1="52.3099" x2="32.7716" y2="10.4496" gradientUnits="userSpaceOnUse">
<stop stop-color="#1A4F97"/>
<stop offset="1" stop-color="#7C9FD6"/>
</linearGradient>
<linearGradient id="paint1_linear" x1="13.054" y1="52.3099" x2="32.7716" y2="10.4496" gradientUnits="userSpaceOnUse">
<stop stop-color="#1A4F97"/>
<stop offset="1" stop-color="#7C9FD6"/>
</linearGradient>
<linearGradient id="paint2_linear" x1="13.054" y1="52.3099" x2="32.7716" y2="10.4496" gradientUnits="userSpaceOnUse">
<stop stop-color="#1A4F97"/>
<stop offset="1" stop-color="#7C9FD6"/>
</linearGradient>
<linearGradient id="paint3_linear" x1="13.054" y1="52.3099" x2="32.7716" y2="10.4496" gradientUnits="userSpaceOnUse">
<stop stop-color="#1A4F97"/>
<stop offset="1" stop-color="#7C9FD6"/>
</linearGradient>
<linearGradient id="paint4_linear" x1="13.054" y1="52.3099" x2="32.7716" y2="10.4496" gradientUnits="userSpaceOnUse">
<stop stop-color="#1A4F97"/>
<stop offset="1" stop-color="#7C9FD6"/>
</linearGradient>
<linearGradient id="paint5_linear" x1="13.054" y1="52.3099" x2="32.7716" y2="10.4496" gradientUnits="userSpaceOnUse">
<stop stop-color="#1A4F97"/>
<stop offset="1" stop-color="#7C9FD6"/>
</linearGradient>
<linearGradient id="paint6_linear" x1="13.054" y1="52.3099" x2="32.7716" y2="10.4496" gradientUnits="userSpaceOnUse">
<stop stop-color="#1A4F97"/>
<stop offset="1" stop-color="#7C9FD6"/>
</linearGradient>
<linearGradient id="paint7_linear" x1="13.054" y1="52.3099" x2="32.7716" y2="10.4496" gradientUnits="userSpaceOnUse">
<stop stop-color="#1A4F97"/>
<stop offset="1" stop-color="#7C9FD6"/>
</linearGradient>
<linearGradient id="paint8_linear" x1="13.054" y1="52.3099" x2="32.7716" y2="10.4496" gradientUnits="userSpaceOnUse">
<stop stop-color="#1A4F97"/>
<stop offset="1" stop-color="#7C9FD6"/>
</linearGradient>
<linearGradient id="paint9_linear" x1="13.054" y1="52.3099" x2="32.7716" y2="10.4496" gradientUnits="userSpaceOnUse">
<stop stop-color="#1A4F97"/>
<stop offset="1" stop-color="#7C9FD6"/>
</linearGradient>
<linearGradient id="paint10_linear" x1="13.054" y1="52.3099" x2="32.7716" y2="10.4496" gradientUnits="userSpaceOnUse">
<stop stop-color="#1A4F97"/>
<stop offset="1" stop-color="#7C9FD6"/>
</linearGradient>
</defs>
</svg>
